<?xml version="1.0" standalone="no"?>
<!DOCTYPE svg PUBLIC "-//W3C//DTD SVG 20010904//EN"
 "http://www.w3.org/TR/2001/REC-SVG-20010904/DTD/svg10.dtd">
<svg version="1.0" xmlns="http://www.w3.org/2000/svg"
 width="1088.000000pt" height="1088.000000pt" viewBox="0 0 1088.000000 1088.000000"
 preserveAspectRatio="xMidYMid meet">
<metadata>
Created by potrace 1.14, written by Peter Selinger 2001-2017
</metadata>
<g transform="translate(0.000000,1088.000000) scale(0.100000,-0.100000)"
fill="#000000" stroke="none">
<path d="M1745 10870 c-3 -5 -3 -10 2 -10 4 0 9 -10 10 -22 2 -34 11 -92 32
-208 18 -103 21 -266 6 -335 -13 -64 -36 -148 -45 -163 -8 -17 -22 -52 -24
-62 -3 -16 -91 -160 -98 -160 -4 0 -8 -6 -8 -14 0 -17 -169 -189 -210 -213
-17 -9 -30 -21 -30 -25 0 -4 -5 -8 -12 -8 -6 0 -19 -6 -27 -14 -28 -24 -148
-86 -155 -79 -3 3 -6 2 -6 -3 0 -8 -51 -33 -80 -39 -22 -5 -98 -27 -110 -32
-17 -7 -8 -5 -156 -34 l-114 -22 0 -4072 c0 -3250 3 -4072 13 -4072 6 -1 36
-6 66 -12 29 -6 57 -8 62 -5 5 3 9 1 9 -5 0 -5 8 -10 18 -10 32 1 117 -18 137
-30 6 -3 19 -7 30 -9 31 -6 37 -7 90 -31 87 -38 195 -95 195 -103 0 -5 5 -8
11 -8 8 0 79 -52 134 -99 25 -21 124 -131 119 -131 -4 0 3 -8 14 -19 12 -10
22 -22 22 -26 0 -4 8 -19 19 -33 33 -49 67 -116 90 -182 13 -36 26 -72 29 -80
19 -54 27 -148 26 -327 l-1 -173 3477 0 3476 0 -1 177 c-1 98 2 193 6 213 4
19 10 51 14 70 6 39 13 65 15 65 1 0 3 7 5 16 9 50 91 208 145 279 61 82 267
270 295 270 4 0 18 9 32 20 14 11 29 17 34 14 5 -3 9 -1 9 4 0 8 77 46 103 50
4 1 20 8 35 16 15 8 38 16 52 17 14 2 27 7 30 10 3 4 22 10 44 13 21 4 42 9
47 11 4 3 30 8 56 11 26 3 62 7 78 9 41 6 354 6 383 1 l22 -5 0 4258 0 4258
-187 -1 c-170 0 -239 4 -313 19 -14 3 -38 8 -55 10 -45 8 -169 47 -179 57 -6
4 -18 8 -28 8 -10 0 -18 5 -18 10 0 6 -6 10 -14 10 -14 0 -126 57 -136 69 -3
4 -23 18 -45 33 -70 46 -114 85 -209 188 -59 64 -169 261 -182 325 -1 6 -3 12
-4 15 -14 37 -33 145 -46 264 -3 33 -7 67 -9 75 -2 15 -325 16 -3493 19 -2322
1 -3493 -1 -3497 -8z"/>
</g>
</svg>
