<svg width="294" height="290" viewBox="0 0 294 290" fill="none" xmlns="http://www.w3.org/2000/svg">
<path d="M269.775 122.122C261.043 137.995 244.573 148.905 225.212 148.905H218V160.436V178.229C218 183.795 213.064 188.309 207.498 188.309C201.932 188.309 197 183.795 197 178.229V148.905H97V178.229C97 183.795 92.065 188.309 86.501 188.309C80.935 188.309 76 183.795 76 178.229V160.436V148.905H69.474C50.113 148.905 33.302 137.995 24.569 122.122C10.191 128.106 0 142.981 0 160.437V208.994C0 231.668 17.165 249.906 38.326 249.906H38V248.387V229.906H256V248.387V249.906H256.358C277.519 249.906 294 231.668 294 208.994V160.437C294 142.982 284.152 128.108 269.775 122.122Z" fill="#860E0E"/>
<path d="M79.554 289.905H215.132C237.192 289.905 255.342 271.905 256.31 249.905H38.376C39.344 271.905 57.494 289.905 79.554 289.905Z" fill="#860E0E"/>
<path d="M113.445 33.905H69.474C52.299 33.905 38 47.992 38 65.167V97.351C38 114.526 52.299 128.906 69.474 128.906H76V89.901C76 84.333 80.935 79.821 86.501 79.821C92.065 79.821 97 84.333 97 89.901V128.905H197V89.901C197 84.333 201.932 79.821 207.498 79.821C213.064 79.821 218 84.333 218 89.901V128.905H225.212C242.387 128.905 256 114.525 256 97.35V65.167C256 47.992 242.387 33.905 225.212 33.905H181.24C181.24 26.905 178.761 19.446 174.578 13.808C168.396 5.47699 158.489 0.0939941 147.341 0.0939941C136.194 0.0939941 126.288 5.46299 120.107 13.793C115.924 19.433 113.445 26.905 113.445 33.905ZM161.086 33.905H133.6C133.6 26.905 139.764 20.164 147.341 20.164C154.92 20.164 161.086 26.905 161.086 33.905Z" fill="#860E0E"/>
</svg>
