<svg width="558" height="682" viewBox="0 0 558 682" fill="none" xmlns="http://www.w3.org/2000/svg">
<path d="M553.274 473.221C536.624 395.165 511.829 318.57 479.579 245.562C479.517 245.426 479.434 245.312 479.361 245.182C479.07 239.927 478.405 234.677 477.167 229.504C470.269 200.623 447.403 178.64 429.027 160.982C424.208 156.351 418.033 151.423 411.068 151.433C410.537 151.194 409.96 151.043 409.342 151.017C405.032 150.82 401.867 150.477 398.519 150.108C396.424 149.879 394.288 149.65 391.855 149.453L401.56 120.192C413.313 122.968 425.144 125.525 436.986 127.818C437.49 127.917 438.285 128.067 439.226 128.067C439.678 128.067 440.162 128.031 440.661 127.937C440.671 127.937 440.681 127.932 440.692 127.932C441.243 127.823 441.778 127.646 442.267 127.418C444.497 126.378 445.542 124.397 446.046 123.436C446.743 122.11 448.869 117.479 452.279 110.04C455.871 102.206 461.23 90.5157 462.493 88.2337C462.893 87.7295 463.195 87.1369 463.366 86.4768C464.011 83.966 462.503 81.4085 460.003 80.7536C459.977 80.7484 459.951 80.7432 459.925 80.738L437.719 75.1344C445.646 59.2799 444.97 39.163 435.509 24.1091C424.874 7.19428 403.66 -2.50031 383.902 0.561415C366.077 3.31125 351.252 15.5685 343.564 33.6634C339.088 32.6601 331.868 31.1422 324.767 29.8375C304.692 26.1468 300.341 26.3807 298.886 31.215L284.284 79.584C283.92 80.79 284.055 82.1103 284.658 83.2123C285.818 85.354 285.968 85.6243 321.321 97.055C322.215 97.3461 323.114 97.632 324.014 97.9231L312.292 131.68L301.844 130.958C300.398 121.325 298.236 112.031 294.826 104.099C287.471 86.9758 275.489 72.8576 263.902 59.1968C262.805 57.9024 261.095 57.2994 259.432 57.6217C257.768 57.9388 256.401 59.1292 255.861 60.7354L243.79 96.4625C243.489 95.6671 243.203 94.8718 242.881 94.0817C237.568 81.1071 229.688 70.9342 220.102 64.6548C219.021 63.9427 217.701 63.714 216.443 64.0103C215.185 64.3066 214.109 65.1071 213.459 66.2247L191.372 104.249C190.769 105.294 190.587 106.521 190.863 107.696L193.139 117.333C181.241 113.767 167.679 115.8 157.568 123.103C150.436 128.254 144.718 135.891 140.581 145.798C137.046 154.261 135.128 163.15 133.272 171.748C133.132 172.408 133.142 173.063 133.267 173.686C128.698 176.577 124.373 179.576 120.339 182.393C119.861 182.726 119.476 183.142 119.164 183.594C116.295 183.199 113.389 182.96 110.431 182.939C110.312 182.939 110.197 182.939 110.078 182.939C92.9863 182.939 76.3366 190.617 65.1917 203.555C61.2047 204.065 57.3372 204.787 53.5998 205.754C29.8389 211.877 10.8604 228.168 4.06641 248.27C-3.88159 271.776 4.30552 295.984 14.416 320.779C4.51345 328.847 2.78246 342.674 2.44978 356.522C2.04952 373.239 1.63886 390.528 5.30357 407.479C9.4777 426.801 18.8812 442.806 31.7675 452.547C35.1203 455.084 38.6758 457.195 42.3821 458.993C42.3873 459.316 42.4289 459.638 42.5069 459.965L45.8077 473.756C35.5985 475.778 26.8396 481.403 21.8597 493.67C15.1801 510.107 11.3023 531.289 10.9436 553.319C10.4602 582.393 19.4478 607.64 36.2431 624.415C56.2768 644.422 85.792 650.915 109.506 656.134L189.028 673.636C198.535 675.726 208.334 677.883 218.455 677.883C219.598 677.883 220.747 677.857 221.896 677.795C230.348 677.368 237.994 675.222 244.315 671.593C251.213 677.862 261.111 681.335 272.115 681.335C273.051 681.335 274.002 681.309 274.953 681.257C286.088 680.664 296.417 677.004 306.408 673.465C354.751 656.337 400.11 637.623 424.027 597.686C424.338 597.753 424.666 597.795 424.999 597.795C425.155 597.795 425.305 597.79 425.461 597.774C456.198 594.785 486.389 584.727 512.78 568.685C536.707 554.13 551.132 537.163 555.649 518.247C559.174 503.495 556.538 488.529 553.274 473.221ZM460.18 89.8088C459.894 89.8972 459.587 89.9595 459.27 89.9907C459.582 89.9595 459.884 89.8972 460.18 89.8088ZM422.503 167.766C439.995 184.571 461.76 205.494 468.019 231.693C471.954 248.15 469.661 265.549 467.447 282.375L443.239 466.271C442.911 466.317 442.584 466.39 442.262 466.51C440.042 467.321 437.796 468.038 435.53 468.677C440.027 452.802 444.325 436.173 446.14 419.991C448.115 402.333 446.332 388.199 440.681 376.789C438.795 372.974 436.44 369.517 433.742 366.497C433.929 366.107 434.08 365.696 434.153 365.244L439.642 332.158C439.891 330.64 440.271 328.348 439.33 325.936C437.23 320.54 430.935 319.88 428.871 319.661L398.015 316.413C396.752 316.277 395.499 316.662 394.527 317.463C393.55 318.268 392.941 319.433 392.832 320.686L389.713 357.104C382.914 360.685 376.739 366.445 372.055 373.842C365.459 384.27 362.283 396.532 359.481 407.344L348.092 451.258C347.172 450.531 346.283 449.803 345.435 449.07C345.446 449.028 345.472 448.997 345.482 448.956L418.381 164.169C419.873 165.307 421.287 166.591 422.503 167.766ZM465.16 371.841C473.326 389.073 480.172 407.407 486.815 425.252C492.336 440.082 498.043 455.417 504.468 469.998C516.299 496.841 511.605 515.773 490.121 527.869C479.605 533.79 467.395 536.732 455.585 539.57C455.548 539.58 455.512 539.601 455.475 539.612L445.438 528.514C445.188 528.238 444.902 528.004 444.606 527.807C445.043 524.651 445.453 521.538 445.854 518.471L465.16 371.841ZM422.93 542.242C417.019 539.263 411.717 535.063 407.496 529.974C417.212 527.287 426.589 523.393 435.327 518.315C432.027 526.419 427.894 534.398 422.93 542.242ZM434.319 533.249C433.7 537.397 433.019 541.577 432.234 545.761C430.774 545.376 429.334 544.924 427.915 544.404C430.223 540.714 432.364 536.997 434.319 533.249ZM327.658 524.994C338.267 529.522 349.506 532.417 360.931 533.691C354.849 541.857 347.447 549 339.099 554.801C334.306 545.298 330.454 535.308 327.658 524.994ZM334.571 557.758C330.589 560.202 326.426 562.354 322.116 564.178C322.688 554.203 323.593 544.248 324.845 534.341C327.481 542.393 330.735 550.226 334.571 557.758ZM364.461 537.953C367.616 543.23 371.229 548.235 375.211 552.929C370.704 558.377 365.911 563.669 360.708 568.607C357.854 571.32 354.958 573.836 352.032 576.176C348.232 570.868 344.744 565.337 341.61 559.604C350.301 553.652 358.051 546.328 364.461 537.953ZM368.541 534.294C370.548 534.393 372.559 534.45 374.566 534.45C379.691 534.45 384.812 534.112 389.895 533.478C386.335 538.556 382.618 543.666 378.662 548.677C374.904 544.165 371.499 539.357 368.541 534.294ZM366.483 601.257C357.786 607.822 347.395 614.756 335.866 619.367C331.094 612.807 327.169 605.639 324.258 598.086C333.391 594.868 342.327 590.07 350.977 583.749C355.728 589.935 360.905 595.793 366.483 601.257ZM355.244 580.49C358.337 578.021 361.394 575.365 364.409 572.506C369.581 567.593 374.353 562.369 378.828 557C384.604 563.185 391.065 568.732 398.046 573.509C389.973 581.852 380.882 590.003 370.776 597.935C365.178 592.503 359.99 586.671 355.244 580.49ZM382.254 552.784C387.619 546.037 392.552 539.133 397.214 532.355C398.743 532.069 400.266 531.752 401.789 531.414C406.581 537.803 412.866 543.068 419.967 546.754C414.717 554.499 408.645 562.104 401.773 569.553C394.641 564.755 388.076 559.11 382.254 552.784ZM327.767 514.728C331.068 495.552 335.647 476.599 341.48 458.026C352.853 467.056 366.836 473.569 378.044 477.046C388.149 480.181 398.685 481.74 409.217 481.74C420.273 481.74 431.33 480.004 441.882 476.573L437.994 506.146C437.282 506.229 436.58 506.458 435.946 506.879C404.393 527.89 362.023 530.936 327.767 514.728ZM400.869 337.07C401.181 333.473 401.487 329.871 401.799 326.268L427.889 329.018C429.396 329.174 430.15 329.398 430.514 329.543C430.483 329.891 430.405 330.359 430.358 330.619C428.762 340.241 427.182 349.79 425.586 359.401C425.659 358.991 421.142 356.309 420.611 356.069C418.423 355.082 416.12 354.338 413.771 353.824C409.082 352.789 404.17 352.685 399.45 353.611C399.928 348.101 400.401 342.585 400.869 337.07ZM403.941 362.463C414.795 361.621 426.459 369.252 432.255 380.958C435.125 386.759 436.804 393.517 437.329 401.361C428.798 401.85 420.804 404.875 412.71 408.249L411.229 408.872C403.728 412.007 395.967 415.256 388.014 416.02C381.823 416.618 373.812 415.443 368.323 410.707L368.583 409.704C371.343 399.058 374.197 388.054 380.008 378.874C386.085 369.268 395.031 363.134 403.941 362.463ZM384.77 421.551C386.007 421.551 387.26 421.494 388.528 421.374C397.292 420.527 405.433 417.122 413.303 413.832L414.779 413.213C422.374 410.047 429.838 407.204 437.505 406.731C437.505 410.562 437.277 414.622 436.793 418.941C434.87 436.074 429.958 454.055 425.092 471.001V471.011C410.376 473.455 395.13 472.498 380.83 468.059C371.291 465.106 363.114 461.228 356.32 457.018L366.862 416.353C371.702 419.711 377.945 421.551 384.77 421.551ZM402.496 172.844C403.842 167.724 405.713 162.328 409.378 161.117C410.683 160.686 412.107 160.837 413.557 161.356L340.981 444.885C337.955 441.777 335.626 438.778 334.057 436.106C333.875 435.794 333.703 435.456 333.516 435.139L402.496 172.844ZM302.036 302.773C301.807 283.94 301.563 264.473 300.861 244.34L309.849 241.309L308.17 375.781C306.413 372.173 304.645 368.639 302.868 365.187C303.143 364.558 303.294 363.872 303.268 363.144C302.514 342.346 302.27 322.229 302.036 302.773ZM315.25 239.49L322.803 236.938L326.608 420.745C324.534 415.75 322.605 410.583 320.713 405.504C318.415 399.323 316.04 392.992 313.409 386.947L315.25 239.49ZM146.044 177.091C150.234 174.82 154.585 172.824 159.06 171.311L319.205 232.478L315.016 233.892C314.709 233.242 314.174 232.712 313.461 232.478L146.044 177.091ZM168.173 169.039C169.966 168.753 171.765 168.54 173.584 168.473C186.06 167.979 198.753 172.813 209.992 177.076L326.462 221.276C330.553 222.83 334.213 224.353 336.76 226.557L327.169 229.79C327.096 229.754 327.034 229.718 326.961 229.686L168.173 169.039ZM202.33 115.327C206.488 119.147 211.744 121.772 217.378 122.63C218.221 122.76 219.068 122.838 219.92 122.885C221.849 140.611 225.618 158.118 231.185 175.059L214.977 168.909L202.33 115.327ZM263.081 187.16L251.952 128.753C251.234 124.969 250.496 121.143 249.675 117.312C254.395 121.019 260.206 123.363 266.158 123.878L276.825 192.379L263.081 187.16ZM339.915 231.168C341.007 234.256 341.048 238.113 340.949 242.401C340.44 264.431 340.05 286.388 339.676 307.617C339.296 328.893 338.906 350.892 338.397 372.958C338.371 374.066 338.745 375.084 339.369 375.9L331.665 405.203L328.146 235.139L339.915 231.168ZM397.495 159.464C397.552 159.469 397.615 159.475 397.672 159.48C395.275 163.347 394.116 167.714 393.399 170.453L348.471 341.307C348.684 330.001 348.887 318.793 349.079 307.784C349.261 297.554 349.448 287.147 349.646 276.657C349.672 276.595 349.703 276.543 349.724 276.475L388.799 158.669C392.068 158.872 394.724 159.158 397.495 159.464ZM294.519 78.2377L307.047 36.7251C315.312 37.2033 341.24 42.6094 345.202 43.7166C347.593 44.382 350.083 43.0824 350.904 40.7433C356.856 23.8128 369.732 12.2677 385.342 9.85574C401.477 7.36062 418.844 15.2826 427.546 29.1202C436.242 42.9577 435.863 62.0298 426.615 75.5034C425.747 76.7718 425.55 78.3884 426.095 79.8283C426.636 81.2682 427.852 82.3494 429.344 82.7289L451.925 88.4209C451.577 89.1538 451.203 89.9491 450.808 90.786C448.733 95.2097 446.108 100.933 443.728 106.115C441.394 111.21 438.992 116.449 438.03 118.435C412.403 113.455 386.844 107.285 362.044 100.091C355.333 98.1467 307.998 83.0564 294.519 78.2377ZM309.095 140.891L304.24 154.879C303.933 150.154 303.554 145.315 303.044 140.475L309.095 140.891ZM332.97 100.803C346.012 104.972 357.147 108.465 359.418 109.125C370.283 112.28 381.292 115.223 392.385 117.967C384.671 141.234 376.838 164.455 368.952 187.659C365.007 199.267 360.978 210.843 357.095 222.471C355.021 228.688 350.452 238.331 350.306 244.839C350.327 244.096 350.337 243.358 350.353 242.619C350.478 237.234 350.649 229.868 346.761 223.823C342.582 217.336 335.195 214.534 329.799 212.48L298.34 200.545L332.97 100.803ZM295.559 168.072C295.673 170.23 295.782 172.33 295.897 174.362C295.944 175.22 296.23 176.005 296.671 176.675L289.545 197.208L282.61 194.573L271.595 123.826C278.031 123.139 284.232 120.291 289.051 115.945C293.662 131.711 294.706 151.589 295.559 168.072ZM262.098 71.6516C265.737 75.9973 269.319 80.4313 272.682 85.0005C270.712 86.6171 268.258 87.6931 265.753 87.9323C262.847 88.213 259.796 87.3864 257.342 85.7542L262.098 71.6516ZM249.337 109.453L255.575 90.9784C258.309 92.517 261.428 93.3643 264.573 93.3643C265.139 93.3643 265.706 93.3384 266.267 93.2864C269.755 92.9485 273.077 91.5502 275.811 89.3929C279.824 95.2357 283.4 101.333 286.181 107.815C286.525 108.611 286.842 109.442 287.159 110.274C282.558 115.321 275.832 118.497 269.007 118.617C261.527 118.773 254.083 115.238 249.306 109.515C249.316 109.494 249.326 109.473 249.337 109.453ZM242.714 130.51L252.757 183.246L237.724 177.538C231.538 159.787 227.369 141.364 225.306 122.682C230.603 121.975 235.686 119.797 239.85 116.434C240.911 121.123 241.825 125.853 242.714 130.51ZM218.938 75.519C223.247 79.1837 226.61 83.5658 229.246 87.8907C223.923 89.6944 217.623 88.9043 212.991 85.7542L218.938 75.519ZM210.288 90.4066C214.13 92.9329 218.725 94.2428 223.325 94.2428C226.252 94.2428 229.173 93.7126 231.897 92.647C232.77 94.3936 233.534 96.083 234.179 97.6528C235.874 101.791 237.23 106.105 238.395 110.492C233.249 115.711 225.415 118.43 218.189 117.318C211.297 116.267 204.918 111.74 201.425 105.668L210.288 90.4066ZM149.256 149.427C152.724 141.141 157.371 134.846 163.078 130.729C172.331 124.049 185.347 123.098 195.473 128.353C195.572 128.4 195.671 128.426 195.765 128.473L204.383 164.974C194.647 161.544 184.115 158.648 173.21 159.069C162.663 159.49 152.828 162.973 143.814 167.61C145.223 161.403 146.85 155.191 149.256 149.427ZM139.822 180.694L307.889 236.298L299.504 239.126C298.964 238.554 298.288 238.107 297.498 237.858L143.351 189.686C139.437 188.46 135.476 187.223 131.448 186.146C134.135 184.317 136.932 182.471 139.822 180.694ZM293.381 347.633C290.413 342.398 287.408 337.351 284.362 332.475L280.308 253.598L291.614 249.377C292.191 267.737 292.419 285.587 292.632 302.887C292.804 317.421 292.986 332.335 293.381 347.633ZM110.374 192.348C120.542 192.41 130.709 195.592 140.544 198.664L288.349 244.855L275.931 249.491C275.848 249.46 275.77 249.413 275.676 249.387L95.3879 194.682C100.264 193.138 105.337 192.312 110.374 192.348ZM278.514 323.378C275.296 318.549 272.027 313.897 268.705 309.411L264.843 259.368L275.026 255.568L278.514 323.378ZM87.5334 197.894C87.601 197.92 87.6582 197.957 87.7309 197.978L267.671 252.574L245.657 260.792C245.48 260.678 245.287 260.574 245.08 260.501L203.983 246.383C203.946 246.372 203.91 246.367 203.879 246.357C178.07 228.662 149.21 215.625 118.592 208.046C104.453 204.548 91.5984 202.77 79.8037 202.697C82.2209 200.873 84.82 199.267 87.5334 197.894ZM262.712 301.608C258.891 296.79 254.998 292.153 251.005 287.714L249.15 265.226L259.603 261.322L262.712 301.608ZM243.92 267.181L245.09 281.341C243.676 279.864 242.252 278.398 240.817 276.964C238.701 274.853 236.549 272.779 234.366 270.747L243.92 267.181ZM229.859 266.687C226.096 263.334 222.234 260.101 218.288 256.982L237.854 263.703L229.859 266.687ZM21.5946 327.147C25.3997 324.605 30.3328 323.914 35.3438 323.914C37.7609 323.914 40.1937 324.075 42.5277 324.262C76.5133 327.022 110.551 334.352 146.59 346.671C159.034 350.923 174.192 358.107 186.673 370.006C127.778 375.781 67.7492 367.599 12.5342 346.266C13.5271 338.105 15.8818 330.968 21.5946 327.147ZM41.3425 397.296C41.067 400.015 40.6459 402.869 39.4192 405.296C38.2496 407.604 36.3782 409.252 34.4081 409.699C30.5823 410.567 26.6161 406.788 25.6388 402.837C24.49 398.195 25.9767 393.122 27.7545 388.329C29.7454 382.96 32.1105 377.663 34.7876 372.579C34.9539 372.257 35.1671 371.82 35.4114 371.305C36.8253 368.348 37.9169 366.502 38.6758 365.811C40.2821 367.994 40.8331 374.991 41.1034 378.422C41.1761 379.352 41.2437 380.189 41.3113 380.865C41.8779 386.344 41.8935 391.874 41.3425 397.296ZM37.4387 445.041C26.3458 436.657 18.2002 422.611 14.4939 405.488C11.0683 389.634 11.4686 372.917 11.8533 356.745C11.8585 356.522 11.8689 356.293 11.8741 356.069C19.0475 358.778 26.2886 361.283 33.6024 363.56C32.4744 365.119 31.4919 367.043 30.5615 368.992C30.3536 369.429 30.1768 369.803 30.0313 370.073C27.2502 375.36 24.7863 380.875 22.7174 386.458C20.6382 392.062 18.9228 398.076 20.4198 404.127C21.8493 409.907 27.1151 415.209 33.2333 415.209C34.0079 415.209 34.798 415.121 35.5933 414.944C39.1644 414.133 42.3093 411.503 44.2171 407.718C45.8441 404.501 46.3795 400.919 46.6914 397.837C47.2736 392.051 47.2632 386.151 46.6602 380.309C46.5978 379.669 46.5355 378.884 46.4627 378.001C46.1404 373.915 45.7557 369.995 44.8824 366.871C79.0032 376.363 114.366 381.218 149.787 381.218C161.067 381.218 175.632 384.27 186.46 380.989C189.927 379.934 191.471 377.585 195 379.461C198.514 381.322 201.597 389.239 203.229 392.665C211.832 410.707 213.256 431.973 207.138 451.004C204.435 459.409 200.807 464.95 196.035 467.939C187.791 473.106 174.878 470.304 165.558 470.138C156.394 469.972 146.99 468.319 137.888 467.29C119.445 465.21 101.043 462.772 82.6939 459.97C65.8467 457.397 49.7115 454.32 37.4387 445.041ZM30.5719 497.21C35.1307 485.993 44.0559 482.255 55.9233 482.255C64.6667 482.255 75.0162 484.288 86.3794 486.855C91.011 487.9 95.3827 488.888 99.4476 489.59C137.81 496.212 176.459 504.16 214.317 513.21C226.657 516.163 238.343 519.484 245.724 527.557C252.269 534.72 254.603 544.462 255.398 555.263C176.843 562.234 96.0948 544.462 27.7129 505.169C28.5966 502.408 29.5478 499.742 30.5719 497.21ZM53.8805 565.467C53.2047 568.202 51.141 574.647 46.629 575.474C43.2554 576.098 39.7934 572.979 38.6862 569.683C37.2879 565.535 38.2912 560.69 39.3152 556.932C42.772 544.316 50.3041 531.695 52.6329 530.12C53.2879 531.352 53.8493 534.751 54.0728 536.103C54.1872 536.789 54.2859 537.382 54.3743 537.829C55.0137 540.911 55.4191 544.077 55.5907 547.248C55.9181 553.428 55.3464 559.557 53.8805 565.467ZM221.428 668.568C211.219 668.932 200.401 666.504 191.045 664.446C190.899 664.415 111.528 646.949 111.528 646.949C89.0097 641.995 60.9812 635.825 42.8915 617.761C28.1287 603.019 19.9156 579.591 20.3471 553.475C20.5706 539.736 22.2288 526.408 25.1034 514.51C32.7395 518.829 40.5212 522.894 48.4276 526.694C41.1034 533.519 34.2054 555.253 34.1326 555.508C32.9007 560.004 31.7259 565.873 33.5868 571.393C35.2658 576.373 40.0949 580.932 45.7193 580.932C46.3327 580.932 46.9617 580.88 47.5959 580.76C53.0228 579.768 57.1085 574.793 59.0994 566.756C60.6849 560.332 61.3138 553.673 60.9552 546.962C60.7732 543.521 60.3314 540.085 59.64 536.742C59.5569 536.347 59.4737 535.827 59.3749 535.23C59.1514 533.883 58.9227 532.605 58.6472 531.425C109.802 554.213 165.854 566.159 221.854 566.159C227.749 566.159 234.418 566.601 240.609 566.793C245.849 566.954 250.782 564.537 255.705 564.833C255.809 566.533 255.788 568.243 255.777 569.959L255.569 620.136C255.507 634.681 254.785 648.503 246.722 657.709C239.933 665.459 230.946 668.225 221.428 668.568ZM282.626 670.798C279.912 671.333 277.189 671.718 274.454 671.869C265.581 672.337 257.607 670.143 252.009 665.787C252.627 665.179 253.23 664.555 253.802 663.905C264.006 652.256 264.911 636.573 264.978 620.178L265.191 570C265.264 552.332 264.36 534.013 252.669 521.221C243.494 511.172 230.327 507.373 216.505 504.067C178.449 494.965 139.609 486.98 101.049 480.321C97.2228 479.661 92.9655 478.699 88.4535 477.681C78.2287 475.373 66.3457 472.685 55.258 472.826L52.95 463.199C61.9064 466.099 71.4867 467.778 81.2696 469.27C111.076 473.818 141.407 477.468 171.416 480.113C174.738 480.404 178.106 480.649 181.449 480.649C188.336 480.649 195.104 479.62 201.03 475.908C207.757 471.692 212.685 464.488 216.095 453.883C222.935 432.587 221.345 408.8 211.718 388.615C200.682 365.468 179.208 347.882 149.631 337.772C112.849 325.198 78.0624 317.712 43.2866 314.89C36.7057 314.359 29.4075 314.058 22.7278 316.257C20.9916 316.828 11.9676 283.773 11.4062 280.493C10.8032 276.964 7.24249 262.762 10.8344 260.48C40.0689 241.923 79.3827 237.458 116.004 248.519C149.049 258.505 179.78 280.207 204.866 311.287C225.597 336.966 242.657 369.065 257.02 409.429C286.712 492.854 295.554 583.198 282.626 670.798ZM303.263 664.602C299.717 665.86 296.12 667.128 292.492 668.256C304.812 580.365 295.647 489.902 265.883 406.268C251.156 364.896 233.592 331.893 212.186 305.377C185.909 272.821 153.587 250.048 118.728 239.511C83.0058 228.725 44.7889 231.807 14.442 247.568C21.2256 232.161 36.7525 219.81 55.9493 214.861C72.7602 210.526 92.5133 211.285 116.331 217.174C160.911 228.21 201.659 251.186 234.174 283.623C260.097 309.494 281.95 342.211 302.946 386.593C306.22 393.522 309.105 401.278 311.902 408.784C315.983 419.757 320.203 431.105 325.947 440.872C328.084 444.506 330.766 447.916 333.828 451.102C312.11 517.94 306.434 589.842 317.433 659.253C317.448 659.326 317.474 659.388 317.485 659.455C312.791 661.197 308.045 662.907 303.263 664.602ZM321.815 570.083C327.117 568.009 332.227 565.473 337.082 562.515C340.305 568.368 343.871 574.018 347.764 579.44C339.551 585.434 331.094 589.977 322.465 593.023C322.075 591.796 321.721 590.559 321.383 589.322C321.389 582.907 321.529 576.493 321.815 570.083ZM321.669 605.743C324.175 611.175 327.169 616.383 330.615 621.285C328.022 622.127 325.376 622.824 322.688 623.375C322.236 617.501 321.888 611.627 321.669 605.743ZM326.467 656.056C325.069 646.99 323.962 637.888 323.14 628.755C326.857 628.033 330.48 627.024 334.005 625.797C339.624 632.898 346.205 639.214 353.539 644.464C344.884 648.622 335.803 652.433 326.467 656.056ZM359.049 641.73C351.632 636.791 344.968 630.704 339.281 623.796C351.107 618.847 361.649 611.689 370.439 605.005C376.895 610.931 383.824 616.347 391.179 621.171C381.635 629.036 370.787 635.757 359.049 641.73ZM416.572 591.838C410.875 601.61 403.717 610.062 395.431 617.522C388.086 612.807 381.162 607.495 374.727 601.657C385.071 593.496 394.387 585.101 402.641 576.493C408.188 579.908 414.02 582.834 420.06 585.226C418.974 587.471 417.83 589.686 416.572 591.838ZM422.301 580.329C416.785 578.166 411.452 575.552 406.368 572.495C413.381 564.828 419.572 557 424.926 549.015C426.969 549.826 429.058 550.497 431.184 551.037C429.084 561.054 426.288 570.977 422.301 580.329ZM429.235 587.887C434.075 577.579 437.37 566.653 439.813 555.653C444.726 565.27 450.875 574.148 458.147 582.133C448.661 584.768 438.987 586.702 429.235 587.887ZM464.557 580.23C464.13 579.814 463.585 579.534 462.976 579.466C454.81 570.697 448.078 560.768 442.953 549.909C442.615 549.192 442.002 548.708 441.295 548.495C441.856 545.543 442.371 542.601 442.844 539.669L475.946 576.264C472.193 577.699 468.393 579.019 464.557 580.23ZM462.644 547.539C473.539 544.862 484.59 541.779 494.737 536.066C520.484 521.564 526.826 497.408 513.076 466.203C506.761 451.877 501.105 436.672 495.631 421.972C487.533 400.212 479.158 377.709 468.336 357.062C468.06 356.537 467.696 356.101 467.281 355.732L475.681 291.908L518.69 418.889C527.325 444.381 538.064 476.095 531.057 505.501C524.653 532.355 502.685 555.024 476.112 562.426L462.644 547.539ZM546.501 516.064C542.586 532.449 529.596 547.45 507.889 560.649C500.58 565.093 492.959 569.038 485.11 572.495C484.97 572.272 484.814 572.048 484.627 571.84L480.11 566.84C507.364 558.221 529.648 534.585 536.286 506.749C543.652 475.835 532.637 443.305 523.785 417.164L477.266 279.828C477.796 275.768 478.306 271.594 478.711 267.347C506.943 334.32 528.92 404.137 544.073 475.186C547.104 489.397 549.568 503.219 546.501 516.064Z" fill="#860E0E"/>
</svg>
