<?xml version="1.0" encoding="iso-8859-1"?>
<!-- Generator: Adobe Illustrator 17.1.0, SVG Export Plug-In . SVG Version: 6.00 Build 0)  -->
<!DOCTYPE svg PUBLIC "-//W3C//DTD SVG 1.1//EN" "http://www.w3.org/Graphics/SVG/1.1/DTD/svg11.dtd">
<!-- License: CC0. Made by undefinedSVG Repo -->
<svg version="1.1" id="Capa_1" xmlns="http://www.w3.org/2000/svg" xmlns:xlink="http://www.w3.org/1999/xlink" x="0px" y="0px"
	 viewBox="0 0 294 294" style="enable-background:new 0 0 294 294;" xml:space="preserve">
<g>
	<path d="M269.775,124.122c-8.732,15.873-25.202,26.783-44.563,26.783H218v11.531v17.793c0,5.566-4.936,10.08-10.502,10.08
		c-5.566,0-10.498-4.514-10.498-10.08v-29.324H97v29.324c0,5.566-4.935,10.08-10.499,10.08c-5.566,0-10.501-4.514-10.501-10.08
		v-17.793v-11.531h-6.526c-19.361,0-36.172-10.91-44.905-26.783C10.191,130.106,0,144.981,0,162.437v48.557
		c0,22.674,17.165,40.912,38.326,40.912c0.001,0-0.326,0-0.326,0v-1.519v-18.481h218v18.481v1.519h0.358
		c21.161,0,37.642-18.238,37.642-40.912v-48.557C294,144.982,284.152,130.108,269.775,124.122z"/>
	<path d="M79.554,291.905h135.578c22.06,0,40.21-18,41.178-40H38.376C39.344,273.905,57.494,291.905,79.554,291.905z"/>
	<path d="M113.445,35.905H69.474C52.299,35.905,38,49.992,38,67.167v32.184c0,17.175,14.299,31.555,31.474,31.555H76V91.901
		c0-5.568,4.935-10.08,10.501-10.08c5.564,0,10.499,4.512,10.499,10.08v39.004h100V91.901c0-5.568,4.932-10.08,10.498-10.08
		c5.566,0,10.502,4.512,10.502,10.08v39.004h7.212c17.175,0,30.788-14.38,30.788-31.555V67.167
		c0-17.175-13.613-31.262-30.788-31.262H181.24c0-7-2.479-14.459-6.662-20.097c-6.182-8.331-16.089-13.714-27.237-13.714
		c-11.147,0-21.053,5.369-27.234,13.699C115.924,21.433,113.445,28.905,113.445,35.905z M161.086,35.905H133.6
		c0-7,6.164-13.741,13.741-13.741C154.92,22.164,161.086,28.905,161.086,35.905z"/>
</g>
</svg>
