<svg width="776" height="103" viewBox="0 0 776 103" fill="none" xmlns="http://www.w3.org/2000/svg">
<g filter="url(#filter0_d_101_145)">
<path fill-rule="evenodd" clip-rule="evenodd" d="M69.93 26.5804C63.8513 28.9543 51.133 31.0314 48.8886 20.349C46.6442 9.66661 61.981 5.21562 69.93 4.32542C61.5134 1.06136 42.997 -3.50833 36.2638 4.32542C29.5306 12.1592 27.8473 30.7346 27.8473 39.0431L6.38409 47.0553H4.00063L5.19237 47.5002L4.00039 47.9451H6.38433L27.8475 55.9573C27.8475 64.2658 29.5308 82.8412 36.2641 90.675C42.9973 98.5087 61.5137 93.939 69.9302 90.675C61.9813 89.7848 46.6444 85.3338 48.8888 74.6514C50.1719 68.5446 54.878 66.6077 59.8097 66.5123L114.817 89.7844V88.8942H114.818V89.7845H392.563V6.10584H117.147L116.916 5.56102L115.715 6.10584H114.818V6.51264L69.8891 26.8916L69.93 26.5804ZM114.818 64.9742V64.8589L114.817 64.8589V64.9742L114.818 64.9742Z" fill="url(#paint0_linear_101_145)"/>
<path fill-rule="evenodd" clip-rule="evenodd" d="M119.238 13.2273H392.561V17.0512H119.238L88.2429 34.5921L81.6688 47.6629L88.8957 62.0315L119.891 79.5723H393.214V83.3962H119.891L70.5802 62.0315V62.0278L32.9424 48.1618L69.9275 34.6852V34.5921L119.238 13.2273Z" fill="url(#paint1_linear_101_145)"/>
<path fill-rule="evenodd" clip-rule="evenodd" d="M705.378 26.5804C711.456 28.9543 724.174 31.0314 726.419 20.349C728.663 9.66661 713.326 5.21562 705.378 4.32542C713.794 1.06136 732.31 -3.50833 739.044 4.32542C745.777 12.1592 747.46 30.7346 747.46 39.0431L768.923 47.0553H771.307L770.115 47.5001L771.307 47.9451H768.923L747.46 55.9573C747.46 64.2658 745.776 82.8412 739.043 90.675C732.31 98.5087 713.794 93.939 705.377 90.675C713.326 89.7848 728.663 85.3338 726.418 74.6514C725.135 68.5451 720.43 66.608 715.499 66.5123L660.491 89.7845V88.8943H660.491V89.7846H382.745V6.1059H658.159L658.391 5.56109L659.592 6.1059H660.491V6.51377L705.418 26.8923L705.378 26.5804ZM660.491 64.9742V64.8589L660.491 64.8589V64.9742L660.491 64.9742Z" fill="url(#paint2_linear_101_145)"/>
<path d="M466.244 46.5068H465.755L465.745 46.9961L465.706 48.7829L465.695 49.2936H466.206H469.261H469.288L469.316 49.2906C472.544 48.9336 475.233 48.0012 477.309 46.4271C479.47 44.8541 480.523 42.6357 480.603 39.8739L480.604 39.8666V39.8594V39.7543C480.604 38.561 480.359 37.4343 479.827 36.3465C479.3 35.2673 478.57 34.3364 477.64 33.5565C476.467 32.5553 474.951 31.7932 473.154 31.2196C471.339 30.64 469.262 30.355 466.932 30.355H451.393H450.893V30.855V62.2475V62.7475H451.393H454.142H454.642V62.2475V51.9118V49.249V47.1469V42.452V33.5273H466.776C470.092 33.5622 472.612 34.1516 474.328 35.2997C476.028 36.4375 476.857 37.9337 476.893 39.8989V39.9952C476.857 42.0955 475.919 43.7261 474.076 44.8646C472.203 46.0212 469.753 46.5068 466.626 46.5068H466.244Z" fill="url(#paint3_linear_101_145)" stroke="url(#paint4_linear_101_145)"/>
<path d="M413.656 63.8335L413.656 63.8337L413.67 63.8336C417.478 63.7979 420.845 63.0131 423.716 61.4611C426.569 59.9189 428.814 57.9001 430.393 55.3644C431.967 52.8364 432.797 50.0827 432.797 47.0768L432.797 46.9717L432.797 46.9651C432.758 43.9688 431.97 41.2152 430.391 38.7163C428.814 36.2204 426.609 34.2003 423.751 32.6908C420.919 31.1751 417.553 30.3906 413.747 30.355L413.747 30.3549L413.737 30.355C409.929 30.3907 406.563 31.1756 403.692 32.7276C400.839 34.2698 398.594 36.2885 397.015 38.8242C395.441 41.3522 394.61 44.1059 394.61 47.1118V47.2169H394.61L394.61 47.2235C394.65 50.2198 395.438 52.9734 397.017 55.4723C398.593 57.9682 400.798 59.9882 403.657 61.4977C406.491 63.0148 409.857 63.7624 413.656 63.8335ZM421.677 58.8632C419.393 60.0802 416.766 60.6964 413.78 60.7314C410.794 60.6964 408.128 60.0797 405.845 58.8632C403.547 57.6386 401.744 56.0144 400.459 53.9591C399.174 51.9025 398.511 49.6458 398.474 47.1081V47.0104C398.511 44.4667 399.138 42.2127 400.419 40.1976C401.707 38.1724 403.473 36.5485 405.769 35.3254C408.053 34.1084 410.68 33.4922 413.666 33.4572C416.652 33.4922 419.318 34.1089 421.601 35.3254C423.899 36.55 425.701 38.1742 426.986 40.2295C428.272 42.2861 428.934 44.5428 428.972 47.0804V47.1783C428.934 49.722 428.307 51.9759 427.026 53.991C425.739 56.0163 423.973 57.6401 421.677 58.8632Z" fill="url(#paint5_linear_101_145)" stroke="url(#paint6_linear_101_145)"/>
<path d="M360.797 46.6819H360.316L360.298 47.1631L360.221 49.1953L360.213 49.3991L360.351 49.5501L372.148 62.5485L372.297 62.7125H372.518H375.993H377.122L376.363 61.8764L364.826 49.1654C367.632 48.7396 369.995 47.8429 371.862 46.4271C374.023 44.8541 375.076 42.6357 375.156 39.8739L375.156 39.8666V39.8594V39.7543C375.156 38.561 374.912 37.4344 374.38 36.3465C373.853 35.2673 373.123 34.3364 372.192 33.5565C371.02 32.5553 369.504 31.7932 367.707 31.2196C365.891 30.64 363.815 30.355 361.484 30.355H345.945H345.445V30.855V62.2475V62.7475H345.945H348.694H349.194V62.2475V51.9118V49.249V47.1469V42.452V33.5273H361.329C364.645 33.5622 367.165 34.1516 368.88 35.2997C370.581 36.4375 371.409 37.9337 371.446 39.8989V39.9952C371.409 42.0955 370.472 43.7261 368.629 44.8646L368.629 44.8646L368.623 44.868C366.741 46.0638 364.284 46.6819 361.179 46.6819H360.797Z" fill="url(#paint7_linear_101_145)" stroke="url(#paint8_linear_101_145)"/>
<path d="M294.995 62.2125V62.7125H295.495L307.789 62.7125L307.793 62.7125C311.745 62.6769 315.254 61.9657 318.27 60.5637C321.279 59.165 323.644 57.2539 325.343 54.7882C327.042 52.3232 327.912 49.5987 327.951 46.5226H327.951V46.5162L327.951 46.4111L327.951 46.4047C327.912 43.3317 327.044 40.5695 325.34 38.1698C323.642 35.7418 321.277 33.8307 318.266 32.4666C315.254 31.1029 311.747 30.355 307.789 30.355H295.495H294.995V30.855V62.2125ZM298.744 59.6103V33.4921H307.786C311.164 33.5269 314.067 34.1466 316.509 35.3011C318.953 36.4562 320.791 38.0455 322.112 39.9992C323.429 41.9462 324.088 44.1254 324.088 46.5512V46.6563C324.088 49.0821 323.429 51.2613 322.112 53.2083C320.795 55.1562 318.96 56.6779 316.509 57.8363C314.07 58.9893 311.168 59.5755 307.786 59.6103H298.744Z" fill="url(#paint9_linear_101_145)" stroke="url(#paint10_linear_101_145)"/>
<path fill-rule="evenodd" clip-rule="evenodd" d="M655.537 13.2275H382.214V17.0515H655.537L686.533 34.5923L693.107 47.6632L685.88 62.0318L654.885 79.5726H381.562V83.3966H654.885L704.196 62.0318V62.028L741.833 48.1622L704.848 34.6857V34.5923L655.537 13.2275Z" fill="url(#paint11_linear_101_145)"/>
</g>
<path d="M738.016 11.3674C732.738 5.27772 735.174 6.90166 731.114 5.27772C728.151 4.09255 722.264 4.19429 721.792 4.14882C712.439 3.24793 724.427 2.55282 729.49 14.2094C733.541 23.5346 728.336 29.8728 726.648 31.2605L735.58 28.8246L742.888 36.1323C740.638 32.5243 743.294 17.457 738.016 11.3674Z" fill="url(#paint12_linear_101_145)"/>
<path d="M738.218 83.2264C732.94 89.316 735.376 87.6921 731.316 89.316C728.354 90.5012 722.466 90.3995 721.994 90.4449C712.641 91.3458 724.629 92.0409 729.692 80.3844C733.743 71.0592 728.538 64.721 726.851 63.3332L735.782 65.7691L743.09 58.4614C740.84 62.0694 743.496 77.1368 738.218 83.2264Z" fill="url(#paint13_linear_101_145)"/>
<path d="M38.3043 12.538C43.5821 6.44838 41.1462 8.07231 45.206 6.44838C48.1688 5.2632 54.0568 5.36495 54.5288 5.31948C63.8813 4.41859 51.8931 3.72348 46.83 15.38C42.7796 24.7053 47.9842 31.0434 49.6719 32.4312L40.7402 29.9953L33.4325 37.303C35.6828 33.695 33.0266 18.6276 38.3043 12.538Z" fill="url(#paint14_linear_101_145)"/>
<path d="M38.1002 84.3971C43.378 90.4867 40.9421 88.8627 45.0019 90.4867C47.9647 91.6719 53.8527 91.5701 54.3247 91.6156C63.6772 92.5165 51.689 93.2116 46.6259 81.555C42.5755 72.2298 47.7801 65.8916 49.4678 64.5039L40.5361 66.9398L33.2284 59.6321C35.4787 63.2401 32.8224 78.3074 38.1002 84.3971Z" fill="url(#paint15_linear_101_145)"/>
<defs>
<filter id="filter0_d_101_145" x="0" y="0" width="775.307" height="103" filterUnits="userSpaceOnUse" color-interpolation-filters="sRGB">
<feFlood flood-opacity="0" result="BackgroundImageFix"/>
<feColorMatrix in="SourceAlpha" type="matrix" values="0 0 0 0 0 0 0 0 0 0 0 0 0 0 0 0 0 0 127 0" result="hardAlpha"/>
<feOffset dy="4"/>
<feGaussianBlur stdDeviation="2"/>
<feComposite in2="hardAlpha" operator="out"/>
<feColorMatrix type="matrix" values="0 0 0 0 0.941667 0 0 0 0 0.914201 0 0 0 0 0.914201 0 0 0 0.25 0"/>
<feBlend mode="normal" in2="BackgroundImageFix" result="effect1_dropShadow_101_145"/>
<feBlend mode="normal" in="SourceGraphic" in2="effect1_dropShadow_101_145" result="shape"/>
</filter>
<linearGradient id="paint0_linear_101_145" x1="223.934" y1="5.56116" x2="223.934" y2="89.7849" gradientUnits="userSpaceOnUse">
<stop stop-color="#D41926"/>
<stop offset="1" stop-color="#08090E"/>
</linearGradient>
<linearGradient id="paint1_linear_101_145" x1="47.5107" y1="30.1034" x2="46.862" y2="62.3535" gradientUnits="userSpaceOnUse">
<stop stop-color="#E5BE75"/>
<stop offset="1" stop-color="#3A260B" stop-opacity="0.99"/>
</linearGradient>
<linearGradient id="paint2_linear_101_145" x1="551.374" y1="5.56116" x2="551.374" y2="89.7849" gradientUnits="userSpaceOnUse">
<stop stop-color="#D41926"/>
<stop offset="1" stop-color="#08090E"/>
</linearGradient>
<linearGradient id="paint3_linear_101_145" x1="465.79" y1="62.2934" x2="465.79" y2="30.9164" gradientUnits="userSpaceOnUse">
<stop stop-color="#5B0606"/>
<stop offset="0.333333" stop-color="#E5BE75"/>
<stop offset="0.708333" stop-color="#E5BE75"/>
<stop offset="1" stop-color="#EC1717"/>
</linearGradient>
<linearGradient id="paint4_linear_101_145" x1="465.748" y1="30.855" x2="465.748" y2="62.2475" gradientUnits="userSpaceOnUse">
<stop stop-color="#EC261F"/>
<stop offset="0.505208" stop-color="#E5BE75"/>
<stop offset="1" stop-color="#6E1E15" stop-opacity="0.37"/>
</linearGradient>
<linearGradient id="paint5_linear_101_145" x1="413.757" y1="63.3811" x2="413.757" y2="30.9185" gradientUnits="userSpaceOnUse">
<stop stop-color="#5B0606"/>
<stop offset="0.333333" stop-color="#E5BE75"/>
<stop offset="0.708333" stop-color="#E5BE75"/>
<stop offset="1" stop-color="#EC1717"/>
</linearGradient>
<linearGradient id="paint6_linear_101_145" x1="413.704" y1="30.855" x2="413.704" y2="63.3336" gradientUnits="userSpaceOnUse">
<stop stop-color="#EC261F"/>
<stop offset="0.505208" stop-color="#E5BE75"/>
<stop offset="1" stop-color="#6E1E15" stop-opacity="0.37"/>
</linearGradient>
<linearGradient id="paint7_linear_101_145" x1="361.012" y1="62.2934" x2="361.012" y2="30.9164" gradientUnits="userSpaceOnUse">
<stop stop-color="#5B0606"/>
<stop offset="0.333333" stop-color="#E5BE75"/>
<stop offset="0.708333" stop-color="#E5BE75"/>
<stop offset="1" stop-color="#EC1717"/>
</linearGradient>
<linearGradient id="paint8_linear_101_145" x1="360.969" y1="30.855" x2="360.969" y2="62.2475" gradientUnits="userSpaceOnUse">
<stop stop-color="#EC261F"/>
<stop offset="0.505208" stop-color="#E5BE75"/>
<stop offset="1" stop-color="#6E1E15" stop-opacity="0.37"/>
</linearGradient>
<linearGradient id="paint9_linear_101_145" x1="311.519" y1="62.2583" x2="311.519" y2="30.9163" gradientUnits="userSpaceOnUse">
<stop stop-color="#5B0606"/>
<stop offset="0.333333" stop-color="#E5BE75"/>
<stop offset="0.708333" stop-color="#E5BE75"/>
<stop offset="1" stop-color="#EC1717"/>
</linearGradient>
<linearGradient id="paint10_linear_101_145" x1="311.473" y1="30.855" x2="311.473" y2="62.2125" gradientUnits="userSpaceOnUse">
<stop stop-color="#EC261F"/>
<stop offset="0.505208" stop-color="#E5BE75"/>
<stop offset="1" stop-color="#6E1E15" stop-opacity="0.37"/>
</linearGradient>
<linearGradient id="paint11_linear_101_145" x1="727.265" y1="30.1037" x2="727.913" y2="62.354" gradientUnits="userSpaceOnUse">
<stop stop-color="#E5BE75"/>
<stop offset="1" stop-color="#3A260B" stop-opacity="0.99"/>
</linearGradient>
<linearGradient id="paint12_linear_101_145" x1="730.607" y1="3.70117" x2="730.607" y2="36.1323" gradientUnits="userSpaceOnUse">
<stop stop-color="#E5BE75"/>
<stop offset="1" stop-color="#3A250A"/>
</linearGradient>
<linearGradient id="paint13_linear_101_145" x1="729.084" y1="60.0854" x2="730.708" y2="88.0983" gradientUnits="userSpaceOnUse">
<stop stop-color="#E5BE75"/>
<stop offset="1" stop-color="#3A250A"/>
</linearGradient>
<linearGradient id="paint14_linear_101_145" x1="45.7133" y1="4.87183" x2="45.7133" y2="37.303" gradientUnits="userSpaceOnUse">
<stop stop-color="#E5BE75"/>
<stop offset="1" stop-color="#3A250A"/>
</linearGradient>
<linearGradient id="paint15_linear_101_145" x1="47.2345" y1="61.2561" x2="45.6105" y2="89.2689" gradientUnits="userSpaceOnUse">
<stop stop-color="#E5BE75"/>
<stop offset="1" stop-color="#3A250A"/>
</linearGradient>
</defs>
</svg>
