<svg width="118" height="34" viewBox="0 0 118 34" fill="none" xmlns="http://www.w3.org/2000/svg">
<g filter="url(#filter0_d_18_274)">
<path d="M11 0H101L110.256 10.5181C111.253 11.6512 111.253 13.3488 110.256 14.4819L101 25H11L3.2621 14.2529C2.50824 13.2059 2.50824 11.7941 3.2621 10.7471L11 0Z" fill="#860E0E"/>
<path d="M3.66787 11.0392L11.2561 0.5H100.774L109.881 10.8484C110.712 11.7927 110.712 13.2073 109.881 14.1516L100.774 24.5H11.2561L3.66787 13.9608C3.03965 13.0882 3.03965 11.9118 3.66787 11.0392Z" stroke="#E7E3E3"/>
</g>
<path d="M39.6855 15V13.4473H41.6074V8.77734H39.6855V7.22461H42.6445L44.2031 8.77734V13.4473L42.6445 15H39.6855ZM36.6855 7.22461H39.2754V15H36.6855V7.22461ZM49.8238 10.3301H48.7223V9.65039L49.5895 8.77734H51.1598L52.4195 10.2305V11.8418H49.8238V10.3301ZM45.7164 15V8.77734H48.3062V15H45.7164ZM60.5539 13.4473L59.0012 15H57.2668V13.5469H57.9113V10.3301H57.2668V8.77734H59.0012L60.5539 10.3301V13.4473ZM56.1828 13.5469H56.8566V15H55.1164L53.5637 13.4473V10.3301L55.1164 8.77734H56.8566V10.3301H56.1828V13.5469ZM62.1258 17.0742V8.77734H64.7156V17.0742H62.1258ZM66.2684 10.3301H65.1258V9.54492L65.8875 8.77734H67.3055L68.8641 10.3301V13.4473L67.3055 15H65.1258V13.5469H66.2684V10.3301ZM71.7895 8.77734H72.8266V10.9746H75.7797L77.1273 12.334V13.5469L75.6801 15H74.5375V12.6504H71.7367L70.3891 11.3555V10.1719L71.7895 8.77734ZM72.9789 13.8574H74.1273V15L71.4613 14.9941L70.3832 13.7168V13.2188H72.9789V13.8574ZM74.5375 9.91992H73.2367V8.77734H75.9906L76.9164 9.70312V10.4062H74.5375V9.91992Z" fill="white"/>
<defs>
<filter id="filter0_d_18_274" x="0.696777" y="0" width="116.307" height="34" filterUnits="userSpaceOnUse" color-interpolation-filters="sRGB">
<feFlood flood-opacity="0" result="BackgroundImageFix"/>
<feColorMatrix in="SourceAlpha" type="matrix" values="0 0 0 0 0 0 0 0 0 0 0 0 0 0 0 0 0 0 127 0" result="hardAlpha"/>
<feOffset dx="2" dy="5"/>
<feGaussianBlur stdDeviation="2"/>
<feComposite in2="hardAlpha" operator="out"/>
<feColorMatrix type="matrix" values="0 0 0 0 0.9375 0 0 0 0 0.90625 0 0 0 0 0.90625 0 0 0 0.25 0"/>
<feBlend mode="normal" in2="BackgroundImageFix" result="effect1_dropShadow_18_274"/>
<feBlend mode="normal" in="SourceGraphic" in2="effect1_dropShadow_18_274" result="shape"/>
</filter>
</defs>
</svg>
