<svg width="63" height="20" viewBox="0 0 63 20" fill="none" xmlns="http://www.w3.org/2000/svg">
<mask id="path-1-inside-1_74_90" fill="white">
<path fill-rule="evenodd" clip-rule="evenodd" d="M0.5625 3C2.1158 3 3.375 1.88071 3.375 0.5C3.375 0.328767 3.35563 0.161555 3.31874 0H59.0623C58.7092 0.41783 58.5 0.937197 58.5 1.5C58.5 2.88071 59.7592 4 61.3125 4C61.9457 4 62.5299 3.81403 63 3.50018V17.4998C62.5299 17.186 61.9457 17 61.3125 17C59.7592 17 58.5 18.1193 58.5 19.5C58.5 19.6712 58.5194 19.8384 58.5563 20H3.31874C3.35563 19.8384 3.375 19.6712 3.375 19.5C3.375 18.1193 2.1158 17 0.5625 17C0.369863 17 0.181749 17.0172 0 17.05V2.94999C0.181749 2.98278 0.369863 3 0.5625 3Z"/>
</mask>
<path fill-rule="evenodd" clip-rule="evenodd" d="M0.5625 3C2.1158 3 3.375 1.88071 3.375 0.5C3.375 0.328767 3.35563 0.161555 3.31874 0H59.0623C58.7092 0.41783 58.5 0.937197 58.5 1.5C58.5 2.88071 59.7592 4 61.3125 4C61.9457 4 62.5299 3.81403 63 3.50018V17.4998C62.5299 17.186 61.9457 17 61.3125 17C59.7592 17 58.5 18.1193 58.5 19.5C58.5 19.6712 58.5194 19.8384 58.5563 20H3.31874C3.35563 19.8384 3.375 19.6712 3.375 19.5C3.375 18.1193 2.1158 17 0.5625 17C0.369863 17 0.181749 17.0172 0 17.05V2.94999C0.181749 2.98278 0.369863 3 0.5625 3Z" fill="#30302C"/>
<path d="M3.31874 0V-1H2.06463L2.34384 0.222631L3.31874 0ZM59.0623 0L59.8261 0.645435L61.2165 -1H59.0623V0ZM63 3.50018H64V1.63011L62.4447 2.66852L63 3.50018ZM63 17.4998L62.4447 18.3315L64 19.3699V17.4998H63ZM58.5563 20V21H59.8104L59.5312 19.7774L58.5563 20ZM3.31874 20L2.34384 19.7774L2.06463 21H3.31874V20ZM0 17.05H-1V18.2466L0.177563 18.0341L0 17.05ZM0 2.94999L0.177568 1.96588L-1 1.75341V2.94999H0ZM2.375 0.5C2.375 1.22095 1.6775 2 0.5625 2V4C2.5541 4 4.375 2.54047 4.375 0.5H2.375ZM2.34384 0.222631C2.36423 0.31195 2.375 0.404499 2.375 0.5H4.375C4.375 0.253035 4.34703 0.0111598 4.29364 -0.222631L2.34384 0.222631ZM59.0623 -1H3.31874V1H59.0623V-1ZM59.5 1.5C59.5 1.19319 59.6123 0.89842 59.8261 0.645435L58.2985 -0.645435C57.8061 -0.0627598 57.5 0.681207 57.5 1.5H59.5ZM61.3125 3C60.1975 3 59.5 2.22095 59.5 1.5H57.5C57.5 3.54047 59.3209 5 61.3125 5V3ZM62.4447 2.66852C62.1404 2.8717 61.7496 3 61.3125 3V5C62.1417 5 62.9195 4.75636 63.5553 4.33185L62.4447 2.66852ZM64 17.4998V3.50018H62V17.4998H64ZM61.3125 18C61.7496 18 62.1404 18.1283 62.4447 18.3315L63.5553 16.6682C62.9195 16.2436 62.1417 16 61.3125 16V18ZM59.5 19.5C59.5 18.779 60.1975 18 61.3125 18V16C59.3209 16 57.5 17.4595 57.5 19.5H59.5ZM59.5312 19.7774C59.5108 19.6881 59.5 19.5955 59.5 19.5H57.5C57.5 19.747 57.528 19.9888 57.5814 20.2226L59.5312 19.7774ZM3.31874 21H58.5563V19H3.31874V21ZM2.375 19.5C2.375 19.5955 2.36423 19.6881 2.34384 19.7774L4.29364 20.2226C4.34703 19.9888 4.375 19.747 4.375 19.5H2.375ZM0.5625 18C1.6775 18 2.375 18.779 2.375 19.5H4.375C4.375 17.4595 2.5541 16 0.5625 16V18ZM0.177563 18.0341C0.300803 18.0119 0.429494 18 0.5625 18V16C0.310231 16 0.0626955 16.0225 -0.177563 16.0659L0.177563 18.0341ZM-1 2.94999V17.05H1V2.94999H-1ZM0.5625 2C0.429492 2 0.300802 1.98812 0.177568 1.96588L-0.177568 3.9341C0.0626963 3.97745 0.310234 4 0.5625 4V2Z" fill="url(#paint0_linear_74_90)" mask="url(#path-1-inside-1_74_90)"/>
<defs>
<linearGradient id="paint0_linear_74_90" x1="9.5625" y1="0" x2="9.5625" y2="19.7321" gradientUnits="userSpaceOnUse">
<stop stop-color="#D37E18"/>
<stop offset="1" stop-color="#EB0E0E"/>
</linearGradient>
</defs>
</svg>
