<svg width="118" height="34" viewBox="0 0 118 34" fill="none" xmlns="http://www.w3.org/2000/svg">
<g filter="url(#filter0_d_18_188)">
<path d="M11 0H101L110.256 10.5181C111.253 11.6512 111.253 13.3488 110.256 14.4819L101 25H11L3.2621 14.2529C2.50824 13.2059 2.50824 11.7941 3.2621 10.7471L11 0Z" fill="#440505"/>
<path d="M3.66787 11.0392L11.2561 0.5H100.774L109.881 10.8484C110.712 11.7927 110.712 13.2073 109.881 14.1516L100.774 24.5H11.2561L3.66787 13.9608C3.03965 13.0882 3.03965 11.9118 3.66787 11.0392Z" stroke="#E7E3E3"/>
</g>
<path d="M39.3164 16V13.9785H40.2539V8.69336H39.3164V6.67188H43.5703C45.3008 6.67188 46.6172 7.07031 47.5195 7.86719C48.4219 8.66016 48.873 9.82031 48.873 11.3477C48.873 12.8711 48.4238 14.0273 47.5254 14.8164C46.627 15.6055 45.3066 16 43.5645 16H39.3164ZM43.3008 14.0371H43.623C44.3105 14.0371 44.8027 13.8301 45.0996 13.416C45.3965 12.998 45.5449 12.3027 45.5449 11.3301C45.5449 10.3613 45.3965 9.66992 45.0996 9.25586C44.8027 8.8418 44.3105 8.63477 43.623 8.63477H43.3008V14.0371ZM50.1402 16V14.2422H50.9898V11.5527H50.1402V9.95312L53.7437 9.60742V10.8086C53.9742 10.3828 54.2926 10.0723 54.6988 9.87695C55.1051 9.68164 55.4937 9.58398 55.8648 9.58398V12.1035C55.5133 11.9824 55.191 11.9219 54.898 11.9219C54.7027 11.9219 54.4977 11.957 54.2828 12.0273C54.068 12.0938 53.9078 12.1855 53.8023 12.3027V14.2422H55.15V16H50.1402ZM60.2551 16.1055C59.5207 16.1055 58.8859 15.9746 58.3508 15.7129C57.8195 15.4512 57.4094 15.0781 57.1203 14.5938C56.8352 14.1094 56.6926 13.5332 56.6926 12.8652C56.6926 12.1934 56.8352 11.6152 57.1203 11.1309C57.4094 10.6465 57.8195 10.2734 58.3508 10.0117C58.8859 9.74609 59.5207 9.61328 60.2551 9.61328C60.9895 9.61328 61.6223 9.74609 62.1535 10.0117C62.6887 10.2734 63.0988 10.6465 63.384 11.1309C63.673 11.6152 63.8176 12.1934 63.8176 12.8652C63.8176 13.5332 63.673 14.1094 63.384 14.5938C63.0988 15.0781 62.6887 15.4512 62.1535 15.7129C61.6223 15.9746 60.9895 16.1055 60.2551 16.1055ZM60.2551 14.4004C60.7824 14.4004 61.0461 13.8867 61.0461 12.8594C61.0461 11.832 60.7824 11.3184 60.2551 11.3184C59.7277 11.3184 59.4641 11.832 59.4641 12.8594C59.4641 13.8867 59.7277 14.4004 60.2551 14.4004ZM64.7391 18.332V16.5742H65.5887V11.5527H64.7391V9.95312L68.3426 9.60742V10.3691C68.5848 10.1387 68.866 9.95508 69.1863 9.81836C69.5066 9.67773 69.8328 9.60742 70.1648 9.60742C70.7352 9.60742 71.2234 9.74219 71.6297 10.0117C72.0398 10.2812 72.3543 10.6602 72.573 11.1484C72.7918 11.6367 72.9012 12.209 72.9012 12.8652C72.9012 13.5176 72.7938 14.0879 72.5789 14.5762C72.3641 15.0605 72.0613 15.4355 71.6707 15.7012C71.284 15.9668 70.8309 16.0996 70.3113 16.0996C69.6395 16.0996 69.0027 15.8555 68.4012 15.3672V16.5742H69.2508V18.332H64.7391ZM69.2566 14.3477C69.534 14.3477 69.7488 14.2168 69.9012 13.9551C70.0535 13.6934 70.1297 13.3281 70.1297 12.8594C70.1297 12.3906 70.0535 12.0234 69.9012 11.7578C69.7488 11.4922 69.534 11.3594 69.2566 11.3594C69.1121 11.3594 68.9598 11.3828 68.7996 11.4297C68.6395 11.4727 68.5066 11.5332 68.4012 11.6113V14.0781C68.5066 14.1523 68.6395 14.2168 68.7996 14.2715C68.9598 14.3223 69.1121 14.3477 69.2566 14.3477ZM77.6664 16.1055C77.268 16.1055 76.8812 16.0586 76.5062 15.9648C76.1312 15.8711 75.7992 15.7363 75.5102 15.5605L75.3285 16H74.0395V13.7969H75.5395C75.6293 14.1016 75.7855 14.3418 76.0082 14.5176C76.2309 14.6934 76.473 14.7812 76.7348 14.7812C77.0785 14.7812 77.2504 14.6523 77.2504 14.3945C77.2504 14.207 77.1723 14.0625 77.016 13.9609C76.8637 13.8594 76.6645 13.7734 76.4184 13.7031C76.1762 13.6328 75.9184 13.5566 75.6449 13.4746C75.3715 13.3926 75.1117 13.2812 74.8656 13.1406C74.6234 12.9961 74.4242 12.8008 74.268 12.5547C74.1156 12.3047 74.0395 11.9785 74.0395 11.5762C74.0395 11.2129 74.1352 10.8828 74.3266 10.5859C74.5219 10.2891 74.8148 10.0527 75.2055 9.87695C75.6 9.69727 76.0941 9.60742 76.6879 9.60742C77.0707 9.60742 77.4242 9.64844 77.7484 9.73047C78.0766 9.80859 78.3832 9.93555 78.6684 10.1113L78.809 9.71875H80.098V11.7344H78.598C78.4965 11.4375 78.35 11.2207 78.1586 11.084C77.9711 10.9434 77.768 10.873 77.5492 10.873C77.1664 10.873 76.975 10.9902 76.975 11.2246C76.975 11.3887 77.0531 11.5195 77.2094 11.6172C77.3695 11.7109 77.5727 11.793 77.8187 11.8633C78.0687 11.9336 78.3324 12.0137 78.6098 12.1035C78.8871 12.1934 79.1488 12.3145 79.3949 12.4668C79.6449 12.6191 79.848 12.8223 80.0043 13.0762C80.1645 13.3301 80.2445 13.6602 80.2445 14.0664C80.2445 14.6875 80.0199 15.1836 79.5707 15.5547C79.1254 15.9219 78.4906 16.1055 77.6664 16.1055Z" fill="white"/>
<path d="M24.0002 2.83337C18.9493 2.83337 14.8335 6.94921 14.8335 12C14.8335 17.0509 18.9493 21.1667 24.0002 21.1667C29.051 21.1667 33.1668 17.0509 33.1668 12C33.1668 6.94921 29.051 2.83337 24.0002 2.83337ZM23.0835 10.1667V7.41671C23.0835 6.91254 23.496 6.50004 24.0002 6.50004C24.5043 6.50004 24.9168 6.91254 24.9168 7.41671V10.1667H26.5577C26.9702 10.1667 27.1718 10.6617 26.8785 10.9459L24.321 13.5034C24.1377 13.6867 23.8535 13.6867 23.6702 13.5034L21.1127 10.9459C21.0493 10.8813 21.0065 10.7993 20.9897 10.7104C20.9728 10.6215 20.9826 10.5296 21.0179 10.4463C21.0532 10.363 21.1124 10.2919 21.188 10.2422C21.2636 10.1924 21.3522 10.1662 21.4427 10.1667H23.0835ZM27.6668 16.5834H20.3335C19.8293 16.5834 19.4168 16.1709 19.4168 15.6667C19.4168 15.1625 19.8293 14.75 20.3335 14.75H27.6668C28.171 14.75 28.5835 15.1625 28.5835 15.6667C28.5835 16.1709 28.171 16.5834 27.6668 16.5834Z" fill="#239628"/>
<defs>
<filter id="filter0_d_18_188" x="0.696777" y="0" width="116.307" height="34" filterUnits="userSpaceOnUse" color-interpolation-filters="sRGB">
<feFlood flood-opacity="0" result="BackgroundImageFix"/>
<feColorMatrix in="SourceAlpha" type="matrix" values="0 0 0 0 0 0 0 0 0 0 0 0 0 0 0 0 0 0 127 0" result="hardAlpha"/>
<feOffset dx="2" dy="5"/>
<feGaussianBlur stdDeviation="2"/>
<feComposite in2="hardAlpha" operator="out"/>
<feColorMatrix type="matrix" values="0 0 0 0 0.9375 0 0 0 0 0.90625 0 0 0 0 0.90625 0 0 0 0.25 0"/>
<feBlend mode="normal" in2="BackgroundImageFix" result="effect1_dropShadow_18_188"/>
<feBlend mode="normal" in="SourceGraphic" in2="effect1_dropShadow_18_188" result="shape"/>
</filter>
</defs>
</svg>
