<svg xmlns="http://www.w3.org/2000/svg" width="36" height="36" viewBox="0 0 16 16">
  <defs>
    <linearGradient id="grad" x1="0%" y1="0%" x2="100%" y2="0%">
      <stop offset="0%" style="stop-color:rgb(0,0,0);stop-opacity:1" />
      <stop offset="100%" style="stop-color:rgb(255,0,0);stop-opacity:1" />
    </linearGradient>
  </defs>
  <path d="M8.5 6a.5.5 0 0 0-1 0v1.5H6a.5.5 0 0 0 0 1h1.5V10a.5.5 0 0 0 1 0V8.5H10a.5.5 0 0 0 0-1H8.5V6z" fill="url(#grad)"/>
  <path d="M2 2a2 2 0 0 1 2-2h8a2 2 0 0 1 2 2v12a2 2 0 0 1-2 2H4a2 2 0 0 1-2-2V2zm10-1H4a1 1 0 0 0-1 1v12a1 1 0 0 0 1 1h8a1 1 0 0 0 1-1V2a1 1 0 0 0-1-1z" fill="url(#grad)"/>
</svg>
