<svg width="118" height="36" viewBox="0 0 118 36" fill="none" xmlns="http://www.w3.org/2000/svg">
<g filter="url(#filter0_d_18_183)">
<path d="M11 2H101L110.256 12.5181C111.253 13.6512 111.253 15.3488 110.256 16.4819L101 27H11L3.2621 16.2529C2.50824 15.2059 2.50824 13.7941 3.2621 12.7471L11 2Z" fill="#440505"/>
<path d="M3.66787 13.0392L11.2561 2.5H100.774L109.881 12.8484C110.712 13.7927 110.712 15.2073 109.881 16.1516L100.774 26.5H11.2561L3.66787 15.9608C3.03965 15.0882 3.03965 13.9118 3.66787 13.0392Z" stroke="#E7E3E3"/>
</g>
<path d="M29.1572 5.92505H16.8422C16.7812 5.92589 16.7213 5.9405 16.6667 5.96777C16.6122 5.99504 16.5645 6.03427 16.5272 6.08255L12.6122 11.25C12.553 11.3204 12.5205 11.4094 12.5205 11.5013C12.5205 11.5932 12.553 11.6822 12.6122 11.7525L22.6922 22.425C22.7287 22.4641 22.7728 22.4953 22.8219 22.5165C22.8709 22.5378 22.9238 22.5488 22.9772 22.5488C23.0307 22.5488 23.0836 22.5378 23.1326 22.5165C23.1816 22.4953 23.2257 22.4641 23.2622 22.425L33.3422 11.7525C33.4015 11.6822 33.4339 11.5932 33.4339 11.5013C33.4339 11.4094 33.4015 11.3204 33.3422 11.25L29.4722 6.08255C29.435 6.03427 29.3873 5.99504 29.3327 5.96777C29.2782 5.9405 29.2182 5.92589 29.1572 5.92505Z" fill="#00A6ED"/>
<path d="M22.6954 22.4266C22.8124 22.5511 22.9452 22.5586 22.9969 22.5466L23.0097 22.4738V10.4971H13.1824C13.0324 10.6966 12.7084 11.1248 12.6169 11.2441C12.5029 11.3941 12.4264 11.5576 12.6169 11.7601L22.6954 22.4266Z" fill="#1C5CD7"/>
<path d="M22.9967 5.92505H16.8422C16.7812 5.92589 16.7212 5.9405 16.6667 5.96777C16.6121 5.99504 16.5644 6.03427 16.5272 6.08255L12.8994 10.8713C12.7479 11.0655 12.5949 11.4053 13.2752 11.4053C15.8027 11.4068 17.8922 11.412 19.3547 11.412C20.1392 10.2375 21.3977 8.3543 22.9967 5.92505Z" fill="#0084CE"/>
<path d="M23 22.5436L19.355 11.4226H26.645L23 22.5436Z" fill="#AEDDFF"/>
<path d="M29.035 5.92505H23.0117V11.3985H33.424C33.4092 11.3448 33.3837 11.2945 33.349 11.2508C33.2785 11.1503 29.6117 6.2693 29.524 6.1463C29.4362 6.0233 29.278 5.92505 29.035 5.92505Z" fill="#26EAFC"/>
<path d="M23 5.92505L24.8225 8.67755L26.645 11.4225H19.355L21.1775 8.67755L23 5.92505Z" fill="#B4F6FC"/>
<path d="M45.959 18.1699C44.8223 18.1699 43.8398 17.9648 43.0117 17.5547C42.1875 17.1445 41.5508 16.5625 41.1016 15.8086C40.6523 15.0547 40.4277 14.1621 40.4277 13.1309C40.4277 12.2051 40.6074 11.3965 40.9668 10.7051C41.3301 10.0098 41.8359 9.46875 42.4844 9.08203C43.1367 8.69531 43.8965 8.50195 44.7637 8.50195C45.416 8.50195 45.9668 8.59375 46.416 8.77734C46.8691 8.96094 47.2383 9.23242 47.5234 9.5918L47.8223 8.67188H49.4336V12.0645H47.2656C47.1914 11.541 47.0312 11.1621 46.7852 10.9277C46.5391 10.6895 46.1875 10.5703 45.7305 10.5703C45.3672 10.5703 45.0352 10.6621 44.7344 10.8457C44.4336 11.0254 44.1934 11.3047 44.0137 11.6836C43.834 12.0586 43.7441 12.5391 43.7441 13.125C43.7441 13.9961 43.9512 14.6621 44.3652 15.123C44.7832 15.584 45.377 15.8145 46.1465 15.8145C46.4668 15.8145 46.75 15.7734 46.9961 15.6914V14.7422H45.8828V12.9844H49.6328V17.3438C49.3359 17.5039 48.9844 17.6465 48.5781 17.7715C48.1719 17.8965 47.7441 17.9941 47.2949 18.0645C46.8457 18.1348 46.4004 18.1699 45.959 18.1699ZM54.7027 18.1055C53.5426 18.1055 52.6324 17.8145 51.9723 17.2324C51.316 16.6465 50.9879 15.8359 50.9879 14.8008C50.9879 14.1484 51.1305 13.584 51.4156 13.1074C51.7047 12.6309 52.107 12.2637 52.6227 12.0059C53.1383 11.7441 53.7379 11.6133 54.4215 11.6133C55.0895 11.6133 55.6617 11.7363 56.1383 11.9824C56.6148 12.2246 56.9781 12.5645 57.2281 13.002C57.482 13.4355 57.609 13.9375 57.609 14.5078C57.609 14.6406 57.6031 14.7695 57.5914 14.8945C57.5797 15.0156 57.566 15.127 57.5504 15.2285H53.7828C53.8492 15.627 54.0289 15.9141 54.3219 16.0898C54.6187 16.2617 54.9801 16.3477 55.4059 16.3477C55.7652 16.3477 56.107 16.2852 56.4312 16.1602C56.7594 16.0312 57.0367 15.8711 57.2633 15.6797L57.4215 15.75V17.4316C57.234 17.5605 56.9918 17.6758 56.6949 17.7773C56.398 17.8789 56.0758 17.959 55.7281 18.0176C55.3844 18.0762 55.0426 18.1055 54.7027 18.1055ZM54.5738 13.0547C54.3121 13.0547 54.1148 13.1562 53.982 13.3594C53.8492 13.5625 53.775 13.8457 53.7594 14.209H55.3883C55.3727 13.8457 55.2984 13.5625 55.1656 13.3594C55.0367 13.1562 54.8395 13.0547 54.5738 13.0547ZM58.759 18V16.2422H59.6086V13.5527H58.759V11.9531L62.3625 11.6074V12.375C62.6047 12.1289 62.9055 11.9395 63.2648 11.8066C63.6242 11.6738 64.007 11.6074 64.4133 11.6074C65.2336 11.6074 65.8039 11.8926 66.1242 12.4629C66.425 12.1895 66.7668 11.9785 67.1496 11.8301C67.5363 11.6816 67.923 11.6074 68.3098 11.6074C69.0598 11.6074 69.6027 11.8047 69.9387 12.1992C70.2785 12.5938 70.4484 13.1914 70.4484 13.9922V16.2422H71.2687V18H67.6359V13.9922C67.6359 13.7734 67.5871 13.6152 67.4895 13.5176C67.3957 13.416 67.2766 13.3652 67.132 13.3652C67.0148 13.3652 66.8918 13.4004 66.7629 13.4707C66.634 13.541 66.5246 13.6426 66.4348 13.7754V16.2422H66.9621V18H63.6223V13.9922C63.6223 13.7734 63.5734 13.6152 63.4758 13.5176C63.382 13.416 63.2629 13.3652 63.1184 13.3652C63.0012 13.3652 62.8781 13.4004 62.7492 13.4707C62.6203 13.541 62.5109 13.6426 62.4211 13.7754V16.2422H62.9484V18H58.759ZM75.9695 18.1055C75.5711 18.1055 75.1844 18.0586 74.8094 17.9648C74.4344 17.8711 74.1023 17.7363 73.8133 17.5605L73.6316 18H72.3426V15.7969H73.8426C73.9324 16.1016 74.0887 16.3418 74.3113 16.5176C74.534 16.6934 74.7762 16.7812 75.0379 16.7812C75.3816 16.7812 75.5535 16.6523 75.5535 16.3945C75.5535 16.207 75.4754 16.0625 75.3191 15.9609C75.1668 15.8594 74.9676 15.7734 74.7215 15.7031C74.4793 15.6328 74.2215 15.5566 73.948 15.4746C73.6746 15.3926 73.4148 15.2812 73.1688 15.1406C72.9266 14.9961 72.7273 14.8008 72.5711 14.5547C72.4188 14.3047 72.3426 13.9785 72.3426 13.5762C72.3426 13.2129 72.4383 12.8828 72.6297 12.5859C72.825 12.2891 73.118 12.0527 73.5086 11.877C73.9031 11.6973 74.3973 11.6074 74.991 11.6074C75.3738 11.6074 75.7273 11.6484 76.0516 11.7305C76.3797 11.8086 76.6863 11.9355 76.9715 12.1113L77.1121 11.7188H78.4012V13.7344H76.9012C76.7996 13.4375 76.6531 13.2207 76.4617 13.084C76.2742 12.9434 76.0711 12.873 75.8523 12.873C75.4695 12.873 75.2781 12.9902 75.2781 13.2246C75.2781 13.3887 75.3563 13.5195 75.5125 13.6172C75.6727 13.7109 75.8758 13.793 76.1219 13.8633C76.3719 13.9336 76.6355 14.0137 76.9129 14.1035C77.1902 14.1934 77.452 14.3145 77.698 14.4668C77.948 14.6191 78.1512 14.8223 78.3074 15.0762C78.4676 15.3301 78.5477 15.6602 78.5477 16.0664C78.5477 16.6875 78.323 17.1836 77.8738 17.5547C77.4285 17.9219 76.7938 18.1055 75.9695 18.1055Z" fill="white"/>
<defs>
<filter id="filter0_d_18_183" x="0.696777" y="2" width="116.307" height="34" filterUnits="userSpaceOnUse" color-interpolation-filters="sRGB">
<feFlood flood-opacity="0" result="BackgroundImageFix"/>
<feColorMatrix in="SourceAlpha" type="matrix" values="0 0 0 0 0 0 0 0 0 0 0 0 0 0 0 0 0 0 127 0" result="hardAlpha"/>
<feOffset dx="2" dy="5"/>
<feGaussianBlur stdDeviation="2"/>
<feComposite in2="hardAlpha" operator="out"/>
<feColorMatrix type="matrix" values="0 0 0 0 0.9375 0 0 0 0 0.90625 0 0 0 0 0.90625 0 0 0 0.25 0"/>
<feBlend mode="normal" in2="BackgroundImageFix" result="effect1_dropShadow_18_183"/>
<feBlend mode="normal" in="SourceGraphic" in2="effect1_dropShadow_18_183" result="shape"/>
</filter>
</defs>
</svg>
