<svg width="118" height="34" viewBox="0 0 118 34" fill="none" xmlns="http://www.w3.org/2000/svg">
<g filter="url(#filter0_d_18_190)">
<path d="M11 0H101L110.256 10.5181C111.253 11.6512 111.253 13.3488 110.256 14.4819L101 25H11L3.2621 14.2529C2.50824 13.2059 2.50824 11.7941 3.2621 10.7471L11 0Z" fill="#440505"/>
<path d="M3.66787 11.0392L11.2561 0.5H100.774L109.881 10.8484C110.712 11.7927 110.712 13.2073 109.881 14.1516L100.774 24.5H11.2561L3.66787 13.9608C3.03965 13.0882 3.03965 11.9118 3.66787 11.0392Z" stroke="#E7E3E3"/>
</g>
<path d="M45.959 16.1699C44.8223 16.1699 43.8398 15.9648 43.0117 15.5547C42.1875 15.1445 41.5508 14.5625 41.1016 13.8086C40.6523 13.0547 40.4277 12.1621 40.4277 11.1309C40.4277 10.2051 40.6074 9.39648 40.9668 8.70508C41.3301 8.00977 41.8359 7.46875 42.4844 7.08203C43.1367 6.69531 43.8965 6.50195 44.7637 6.50195C45.416 6.50195 45.9668 6.59375 46.416 6.77734C46.8691 6.96094 47.2383 7.23242 47.5234 7.5918L47.8223 6.67188H49.4336V10.0645H47.2656C47.1914 9.54102 47.0312 9.16211 46.7852 8.92773C46.5391 8.68945 46.1875 8.57031 45.7305 8.57031C45.3672 8.57031 45.0352 8.66211 44.7344 8.8457C44.4336 9.02539 44.1934 9.30469 44.0137 9.68359C43.834 10.0586 43.7441 10.5391 43.7441 11.125C43.7441 11.9961 43.9512 12.6621 44.3652 13.123C44.7832 13.584 45.377 13.8145 46.1465 13.8145C46.4668 13.8145 46.75 13.7734 46.9961 13.6914V12.7422H45.8828V10.9844H49.6328V15.3438C49.3359 15.5039 48.9844 15.6465 48.5781 15.7715C48.1719 15.8965 47.7441 15.9941 47.2949 16.0645C46.8457 16.1348 46.4004 16.1699 45.959 16.1699ZM54.5504 16.1055C53.816 16.1055 53.1812 15.9746 52.6461 15.7129C52.1148 15.4512 51.7047 15.0781 51.4156 14.5938C51.1305 14.1094 50.9879 13.5332 50.9879 12.8652C50.9879 12.1934 51.1305 11.6152 51.4156 11.1309C51.7047 10.6465 52.1148 10.2734 52.6461 10.0117C53.1812 9.74609 53.816 9.61328 54.5504 9.61328C55.2848 9.61328 55.9176 9.74609 56.4488 10.0117C56.984 10.2734 57.3941 10.6465 57.6793 11.1309C57.9684 11.6152 58.1129 12.1934 58.1129 12.8652C58.1129 13.5332 57.9684 14.1094 57.6793 14.5938C57.3941 15.0781 56.984 15.4512 56.4488 15.7129C55.9176 15.9746 55.2848 16.1055 54.5504 16.1055ZM54.5504 14.4004C55.0777 14.4004 55.3414 13.8867 55.3414 12.8594C55.3414 11.832 55.0777 11.3184 54.5504 11.3184C54.023 11.3184 53.7594 11.832 53.7594 12.8594C53.7594 13.8867 54.023 14.4004 54.5504 14.4004ZM59.0109 16V14.2422H59.9191V8.83984H59.0109V7.24023L62.7316 6.85938V14.2422H63.6398V16H59.0109ZM67.3035 16.1055C66.7371 16.1055 66.2488 15.9707 65.8387 15.7012C65.4285 15.4316 65.1141 15.0527 64.8953 14.5645C64.6766 14.0723 64.5672 13.5 64.5672 12.8477C64.5672 12.1914 64.6746 11.6211 64.8895 11.1367C65.1043 10.6523 65.4051 10.2773 65.7918 10.0117C66.1824 9.74609 66.6375 9.61328 67.157 9.61328C67.8289 9.61328 68.4656 9.85742 69.0672 10.3457V8.83984H68.0418V7.24023L71.8797 6.85938V14.2422H72.7V16H69.1258V15.3438C68.8836 15.5742 68.6023 15.7598 68.282 15.9004C67.9617 16.0371 67.6355 16.1055 67.3035 16.1055ZM68.2117 14.3535C68.3602 14.3535 68.5125 14.3301 68.6688 14.2832C68.8289 14.2363 68.9617 14.1758 69.0672 14.1016V11.6348C68.9617 11.5566 68.8289 11.4922 68.6688 11.4414C68.5125 11.3906 68.3602 11.3652 68.2117 11.3652C67.9383 11.3652 67.7234 11.4961 67.5672 11.7578C67.4148 12.0195 67.3387 12.3848 67.3387 12.8535C67.3387 13.3223 67.4148 13.6895 67.5672 13.9551C67.7234 14.2207 67.9383 14.3535 68.2117 14.3535ZM77.4008 16.1055C77.0023 16.1055 76.6156 16.0586 76.2406 15.9648C75.8656 15.8711 75.5336 15.7363 75.2445 15.5605L75.0629 16H73.7738V13.7969H75.2738C75.3637 14.1016 75.5199 14.3418 75.7426 14.5176C75.9652 14.6934 76.2074 14.7812 76.4691 14.7812C76.8129 14.7812 76.9848 14.6523 76.9848 14.3945C76.9848 14.207 76.9066 14.0625 76.7504 13.9609C76.598 13.8594 76.3988 13.7734 76.1527 13.7031C75.9105 13.6328 75.6527 13.5566 75.3793 13.4746C75.1059 13.3926 74.8461 13.2812 74.6 13.1406C74.3578 12.9961 74.1586 12.8008 74.0023 12.5547C73.85 12.3047 73.7738 11.9785 73.7738 11.5762C73.7738 11.2129 73.8695 10.8828 74.0609 10.5859C74.2562 10.2891 74.5492 10.0527 74.9398 9.87695C75.3344 9.69727 75.8285 9.60742 76.4223 9.60742C76.8051 9.60742 77.1586 9.64844 77.4828 9.73047C77.8109 9.80859 78.1176 9.93555 78.4027 10.1113L78.5434 9.71875H79.8324V11.7344H78.3324C78.2309 11.4375 78.0844 11.2207 77.893 11.084C77.7055 10.9434 77.5023 10.873 77.2836 10.873C76.9008 10.873 76.7094 10.9902 76.7094 11.2246C76.7094 11.3887 76.7875 11.5195 76.9437 11.6172C77.1039 11.7109 77.307 11.793 77.5531 11.8633C77.8031 11.9336 78.0668 12.0137 78.3441 12.1035C78.6215 12.1934 78.8832 12.3145 79.1293 12.4668C79.3793 12.6191 79.5824 12.8223 79.7387 13.0762C79.8988 13.3301 79.9789 13.6602 79.9789 14.0664C79.9789 14.6875 79.7543 15.1836 79.3051 15.5547C78.8598 15.9219 78.225 16.1055 77.4008 16.1055Z" fill="white"/>
<path d="M23 22C26.976 22 31 20.626 31 18V6C31 3.374 26.976 2 23 2C19.024 2 15 3.374 15 6V18C15 20.626 19.024 22 23 22ZM23 20C19.278 20 17 18.705 17 18V16.732C18.541 17.57 20.777 18 23 18C25.223 18 27.459 17.57 29 16.732V18C29 18.705 26.722 20 23 20ZM23 4C26.722 4 29 5.295 29 6C29 6.705 26.722 8 23 8C19.278 8 17 6.705 17 6C17 5.295 19.278 4 23 4ZM17 8.732C18.541 9.57 20.777 10 23 10C25.223 10 27.459 9.57 29 8.732V10C29 10.705 26.722 12 23 12C19.278 12 17 10.705 17 10V8.732ZM17 12.732C18.541 13.57 20.777 14 23 14C25.223 14 27.459 13.57 29 12.732V14C29 14.705 26.722 16 23 16C19.278 16 17 14.705 17 14V12.732Z" fill="#F7A70A"/>
<defs>
<filter id="filter0_d_18_190" x="0.696777" y="0" width="116.307" height="34" filterUnits="userSpaceOnUse" color-interpolation-filters="sRGB">
<feFlood flood-opacity="0" result="BackgroundImageFix"/>
<feColorMatrix in="SourceAlpha" type="matrix" values="0 0 0 0 0 0 0 0 0 0 0 0 0 0 0 0 0 0 127 0" result="hardAlpha"/>
<feOffset dx="2" dy="5"/>
<feGaussianBlur stdDeviation="2"/>
<feComposite in2="hardAlpha" operator="out"/>
<feColorMatrix type="matrix" values="0 0 0 0 0.9375 0 0 0 0 0.90625 0 0 0 0 0.90625 0 0 0 0.25 0"/>
<feBlend mode="normal" in2="BackgroundImageFix" result="effect1_dropShadow_18_190"/>
<feBlend mode="normal" in="SourceGraphic" in2="effect1_dropShadow_18_190" result="shape"/>
</filter>
</defs>
</svg>
