<svg width="118" height="34" viewBox="0 0 118 34" fill="none" xmlns="http://www.w3.org/2000/svg">
<g filter="url(#filter0_d_18_189)">
<path d="M11 0H101L110.256 10.5181C111.253 11.6512 111.253 13.3488 110.256 14.4819L101 25H11L3.2621 14.2529C2.50824 13.2059 2.50824 11.7941 3.2621 10.7471L11 0Z" fill="#440505"/>
<path d="M3.66787 11.0392L11.2561 0.5H100.774L109.881 10.8484C110.712 11.7927 110.712 13.2073 109.881 14.1516L100.774 24.5H11.2561L3.66787 13.9608C3.03965 13.0882 3.03965 11.9118 3.66787 11.0392Z" stroke="#E7E3E3"/>
</g>
<path d="M45.959 17.1699C44.8223 17.1699 43.8398 16.9648 43.0117 16.5547C42.1875 16.1445 41.5508 15.5625 41.1016 14.8086C40.6523 14.0547 40.4277 13.1621 40.4277 12.1309C40.4277 11.2051 40.6074 10.3965 40.9668 9.70508C41.3301 9.00977 41.8359 8.46875 42.4844 8.08203C43.1367 7.69531 43.8965 7.50195 44.7637 7.50195C45.416 7.50195 45.9668 7.59375 46.416 7.77734C46.8691 7.96094 47.2383 8.23242 47.5234 8.5918L47.8223 7.67188H49.4336V11.0645H47.2656C47.1914 10.541 47.0312 10.1621 46.7852 9.92773C46.5391 9.68945 46.1875 9.57031 45.7305 9.57031C45.3672 9.57031 45.0352 9.66211 44.7344 9.8457C44.4336 10.0254 44.1934 10.3047 44.0137 10.6836C43.834 11.0586 43.7441 11.5391 43.7441 12.125C43.7441 12.9961 43.9512 13.6621 44.3652 14.123C44.7832 14.584 45.377 14.8145 46.1465 14.8145C46.4668 14.8145 46.75 14.7734 46.9961 14.6914V13.7422H45.8828V11.9844H49.6328V16.3438C49.3359 16.5039 48.9844 16.6465 48.5781 16.7715C48.1719 16.8965 47.7441 16.9941 47.2949 17.0645C46.8457 17.1348 46.4004 17.1699 45.959 17.1699ZM51.1168 17V15.2422H51.9664V12.5527H51.1168V10.9531L54.7203 10.6074V11.8086C54.9508 11.3828 55.2691 11.0723 55.6754 10.877C56.0816 10.6816 56.4703 10.584 56.8414 10.584V13.1035C56.4898 12.9824 56.1676 12.9219 55.8746 12.9219C55.6793 12.9219 55.4742 12.957 55.2594 13.0273C55.0445 13.0938 54.8844 13.1855 54.7789 13.3027V15.2422H56.1266V17H51.1168ZM59.8254 17.1055C59.423 17.1055 59.0637 17.0254 58.7473 16.8652C58.4348 16.7012 58.1887 16.4766 58.009 16.1914C57.8332 15.9062 57.7453 15.5781 57.7453 15.207C57.7453 14.6289 57.968 14.168 58.4133 13.8242C58.8586 13.4805 59.4523 13.3086 60.1945 13.3086C60.4523 13.3086 60.6984 13.3242 60.9328 13.3555C61.1672 13.3867 61.4055 13.4395 61.6477 13.5137V13.3848C61.6477 13.0293 61.5383 12.7715 61.3195 12.6113C61.1047 12.4512 60.759 12.3711 60.2824 12.3711C59.9387 12.3711 59.591 12.416 59.2395 12.5059C58.8879 12.5957 58.5676 12.7207 58.2785 12.8809L58.1203 12.8105V11.0996C58.5305 10.9395 58.9953 10.8184 59.5148 10.7363C60.0383 10.6543 60.5637 10.6133 61.091 10.6133C62.259 10.6133 63.1125 10.8086 63.6516 11.1992C64.1906 11.5898 64.4602 12.2168 64.4602 13.0801V15.2422H65.2219V17H62.0227L61.7355 16.0801C61.552 16.4004 61.2902 16.6523 60.9504 16.8359C60.6145 17.0156 60.2395 17.1055 59.8254 17.1055ZM61.05 15.6055C61.1555 15.6055 61.2648 15.5879 61.3781 15.5527C61.4953 15.5137 61.5852 15.4629 61.6477 15.4004V14.4219C61.55 14.3789 61.4504 14.3496 61.3488 14.334C61.2512 14.3184 61.1594 14.3105 61.0734 14.3105C60.8742 14.3105 60.7062 14.3691 60.5695 14.4863C60.4367 14.6035 60.3703 14.7598 60.3703 14.9551C60.3703 15.1543 60.4328 15.3125 60.5578 15.4297C60.6828 15.5469 60.8469 15.6055 61.05 15.6055ZM71.1355 17.1113C70.8152 17.1113 70.491 17.0605 70.1629 16.959C69.8387 16.8535 69.532 16.6992 69.243 16.4961L69.0086 17.0059L66.7938 17V9.83984H66.032V8.24023L69.6063 7.85938V11.3457C70.2078 10.8574 70.8445 10.6133 71.5164 10.6133C72.0359 10.6133 72.4891 10.7461 72.8758 11.0117C73.2664 11.2773 73.5691 11.6523 73.784 12.1367C73.9988 12.6211 74.1063 13.1914 74.1063 13.8477C74.1063 14.5156 73.9871 15.0938 73.7488 15.582C73.5105 16.0703 73.1688 16.4473 72.7234 16.7129C72.282 16.9785 71.7527 17.1113 71.1355 17.1113ZM70.4031 15.3594C70.7078 15.3594 70.9383 15.2266 71.0945 14.9609C71.2547 14.6953 71.3348 14.3262 71.3348 13.8535C71.3348 13.3848 71.2586 13.0195 71.1063 12.7578C70.9539 12.4961 70.7391 12.3652 70.4617 12.3652C70.3172 12.3652 70.1648 12.3906 70.0047 12.4414C69.8445 12.4922 69.7117 12.5566 69.6063 12.6348V15.1309C69.8367 15.2832 70.1023 15.3594 70.4031 15.3594ZM78.8656 17.1055C78.4672 17.1055 78.0805 17.0586 77.7055 16.9648C77.3305 16.8711 76.9984 16.7363 76.7094 16.5605L76.5277 17H75.2387V14.7969H76.7387C76.8285 15.1016 76.9848 15.3418 77.2074 15.5176C77.4301 15.6934 77.6723 15.7812 77.934 15.7812C78.2777 15.7812 78.4496 15.6523 78.4496 15.3945C78.4496 15.207 78.3715 15.0625 78.2152 14.9609C78.0629 14.8594 77.8637 14.7734 77.6176 14.7031C77.3754 14.6328 77.1176 14.5566 76.8441 14.4746C76.5707 14.3926 76.3109 14.2812 76.0648 14.1406C75.8227 13.9961 75.6234 13.8008 75.4672 13.5547C75.3148 13.3047 75.2387 12.9785 75.2387 12.5762C75.2387 12.2129 75.3344 11.8828 75.5258 11.5859C75.7211 11.2891 76.0141 11.0527 76.4047 10.877C76.7992 10.6973 77.2934 10.6074 77.8871 10.6074C78.2699 10.6074 78.6234 10.6484 78.9477 10.7305C79.2758 10.8086 79.5824 10.9355 79.8676 11.1113L80.0082 10.7188H81.2973V12.7344H79.7973C79.6957 12.4375 79.5492 12.2207 79.3578 12.084C79.1703 11.9434 78.9672 11.873 78.7484 11.873C78.3656 11.873 78.1742 11.9902 78.1742 12.2246C78.1742 12.3887 78.2523 12.5195 78.4086 12.6172C78.5687 12.7109 78.7719 12.793 79.018 12.8633C79.268 12.9336 79.5316 13.0137 79.809 13.1035C80.0863 13.1934 80.348 13.3145 80.5941 13.4668C80.8441 13.6191 81.0473 13.8223 81.2035 14.0762C81.3637 14.3301 81.4437 14.6602 81.4437 15.0664C81.4437 15.6875 81.2191 16.1836 80.7699 16.5547C80.3246 16.9219 79.6898 17.1055 78.8656 17.1055Z" fill="white"/>
<path d="M25.4144 2.09167C24.1438 2.95122 22.905 3.6348 21.5578 4.21685C21.4245 5.03078 21.3727 5.83389 21.368 6.63485C22.7233 7.35719 23.9975 8.17469 25.2741 8.96144L25.6043 9.16506L25.4434 9.51578C24.8753 10.7613 24.3029 11.723 23.2757 12.8111L23.0327 13.0695L22.7299 12.8865C21.1842 11.9502 19.239 11.0713 17.4155 10.3576L17.7355 9.54316C19.46 10.2182 21.2563 11.0582 22.8051 11.9574C23.5268 11.1513 23.9923 10.3939 24.4323 9.47819C22.3961 8.21678 20.395 6.96991 18.1187 6.16732C17.04 7.12155 16.3513 8.28808 15.6839 9.48325C16.0741 10.6783 15.9931 11.9853 15.3748 13.1142C17.6519 13.0864 19.9682 13.2187 22.4372 13.5951L22.7024 13.6344L22.7862 13.8894C23.2011 15.1297 23.3389 16.4398 23.1764 17.8075L23.1302 18.2028L22.7333 18.194C20.8345 18.1535 18.9751 18.0938 17.1941 18.205C17.2707 18.9522 17.0858 19.6568 16.8321 20.3155C17.4614 21.6534 18.1155 22.9312 19.0956 24.037C21.0302 23.144 22.544 22.5703 24.5299 22.0284C24.3702 21.3852 24.2056 20.7927 24.0097 20.4524C23.7696 20.0352 23.5312 19.8404 23.173 19.7373C22.4565 19.531 21.0855 19.8448 18.8186 20.6492L18.5259 19.8245C20.8184 19.011 22.262 18.5638 23.4142 18.8954C23.8423 19.0186 24.2056 19.2706 24.4954 19.6201C25.1745 19.2626 25.8274 18.8331 26.4666 18.3547C27.0451 16.2022 28.2146 14.5381 29.5897 13.0997C29.251 12.4659 28.9706 11.8245 28.6258 11.1959L28.4668 10.9068L28.7011 10.6741C29.7921 9.58985 30.9202 8.79171 32.07 8.21374L32.4636 8.9973C31.4814 9.49089 30.5181 10.212 29.5669 11.1138C30.1486 12.2346 30.6105 13.2466 31.4165 14.1525C33.1737 12.8811 34.9294 11.7436 36.8933 10.6398C36.239 9.21138 35.424 7.90432 34.2549 6.91502C32.7455 7.54221 31.324 7.73017 29.9138 7.49111C29.2471 8.11221 28.5032 8.53314 27.6284 8.58503C26.2682 8.66575 24.7812 7.84722 22.9796 5.88166L23.3011 5.58658L23.3019 5.58527L23.3022 5.58555L23.6247 5.28958C25.3451 7.1666 26.6125 7.76786 27.5772 7.71067C28.445 7.65911 29.2192 7.00989 29.9998 6.05102C28.6486 4.55992 26.9917 3.24133 25.4144 2.09172L25.4144 2.09167ZM15.8431 14.0258C15.559 14.0268 15.2757 14.0304 14.9927 14.0362C15.0711 15.2685 15.2511 16.4403 15.6514 17.4924C17.802 17.2196 20.0252 17.2599 22.2678 17.311C22.3389 16.314 22.2559 15.3568 21.9838 14.4417C19.8497 14.134 17.8311 14.0184 15.8431 14.0258Z" fill="#D21313"/>
<defs>
<filter id="filter0_d_18_189" x="0.696777" y="0" width="116.307" height="34" filterUnits="userSpaceOnUse" color-interpolation-filters="sRGB">
<feFlood flood-opacity="0" result="BackgroundImageFix"/>
<feColorMatrix in="SourceAlpha" type="matrix" values="0 0 0 0 0 0 0 0 0 0 0 0 0 0 0 0 0 0 127 0" result="hardAlpha"/>
<feOffset dx="2" dy="5"/>
<feGaussianBlur stdDeviation="2"/>
<feComposite in2="hardAlpha" operator="out"/>
<feColorMatrix type="matrix" values="0 0 0 0 0.9375 0 0 0 0 0.90625 0 0 0 0 0.90625 0 0 0 0.25 0"/>
<feBlend mode="normal" in2="BackgroundImageFix" result="effect1_dropShadow_18_189"/>
<feBlend mode="normal" in="SourceGraphic" in2="effect1_dropShadow_18_189" result="shape"/>
</filter>
</defs>
</svg>
