<svg width="118" height="136" viewBox="0 0 118 136" fill="none" xmlns="http://www.w3.org/2000/svg">
<mask id="path-1-outside-1_74_76" maskUnits="userSpaceOnUse" x="0" y="0" width="118" height="136" fill="black">
<rect fill="white" width="118" height="136"/>
<path fill-rule="evenodd" clip-rule="evenodd" d="M3 20.6373C10.771 19.1404 16.5999 12.896 16.5999 5.42016C16.5999 4.59695 16.5293 3.78866 16.3931 3H97.5049C98.4556 10.7792 105.747 16.8298 114.6 16.8298C114.734 16.8298 114.867 16.8284 115 16.8257V117.1C114.867 117.097 114.734 117.096 114.6 117.096C105.101 117.096 97.4 124.062 97.4 132.654C97.4 132.77 97.4014 132.885 97.4041 133H16.5958C16.5986 132.885 16.5999 132.77 16.5999 132.654C16.5999 125.178 10.771 118.934 3 117.437V20.6373Z"/>
</mask>
<path fill-rule="evenodd" clip-rule="evenodd" d="M3 20.6373C10.771 19.1404 16.5999 12.896 16.5999 5.42016C16.5999 4.59695 16.5293 3.78866 16.3931 3H97.5049C98.4556 10.7792 105.747 16.8298 114.6 16.8298C114.734 16.8298 114.867 16.8284 115 16.8257V117.1C114.867 117.097 114.734 117.096 114.6 117.096C105.101 117.096 97.4 124.062 97.4 132.654C97.4 132.77 97.4014 132.885 97.4041 133H16.5958C16.5986 132.885 16.5999 132.77 16.5999 132.654C16.5999 125.178 10.771 118.934 3 117.437V20.6373Z" fill="#30302C"/>
<path d="M3 20.6373L2.43252 17.6915L0 18.1601V20.6373H3ZM16.3931 3V0H12.8307L13.4368 3.51043L16.3931 3ZM97.5049 3L100.483 2.63609L100.161 0H97.5049V3ZM115 16.8257H118V13.7631L114.938 13.8263L115 16.8257ZM115 117.1L114.938 120.099L118 120.162V117.1H115ZM97.4041 133V136H100.477L100.403 132.928L97.4041 133ZM16.5958 133L13.5967 132.928L13.5226 136H16.5958V133ZM3 117.437H0V119.914L2.43252 120.383L3 117.437ZM13.5999 5.42016C13.5999 11.2286 9.02945 16.4207 2.43252 17.6915L3.56748 23.5832C12.5126 21.86 19.5999 14.5634 19.5999 5.42016H13.5999ZM13.4368 3.51043C13.5441 4.13156 13.5999 4.76909 13.5999 5.42016H19.5999C19.5999 4.4248 19.5144 3.44576 19.3494 2.48957L13.4368 3.51043ZM97.5049 0H16.3931V6H97.5049V0ZM114.6 13.8298C107.041 13.8298 101.224 8.69989 100.483 2.63609L94.5271 3.36391C95.6874 12.8585 104.453 19.8298 114.6 19.8298V13.8298ZM114.938 13.8263C114.826 13.8286 114.713 13.8298 114.6 13.8298V19.8298C114.754 19.8298 114.908 19.8282 115.062 19.825L114.938 13.8263ZM118 117.1V16.8257H112V117.1H118ZM114.6 120.096C114.713 120.096 114.826 120.097 114.938 120.099L115.062 114.101C114.908 114.097 114.754 114.096 114.6 114.096V120.096ZM100.4 132.654C100.4 125.994 106.467 120.096 114.6 120.096V114.096C103.734 114.096 94.4 122.129 94.4 132.654H100.4ZM100.403 132.928C100.401 132.837 100.4 132.746 100.4 132.654H94.4C94.4 132.794 94.4017 132.933 94.405 133.072L100.403 132.928ZM16.5958 136H97.4041V130H16.5958V136ZM13.5999 132.654C13.5999 132.746 13.5988 132.837 13.5967 132.928L19.5949 133.072C19.5983 132.933 19.5999 132.794 19.5999 132.654H13.5999ZM2.43252 120.383C9.02945 121.654 13.5999 126.846 13.5999 132.654H19.5999C19.5999 123.511 12.5126 116.214 3.56748 114.491L2.43252 120.383ZM0 20.6373V117.437H6V20.6373H0Z" fill="url(#paint0_linear_74_76)" mask="url(#path-1-outside-1_74_76)"/>
<path d="M59.4816 15.7929L86.3214 87.7616L86.6118 88.5402L87.429 88.3901L110.552 84.1431L59.4978 118.837L8.51235 84.1868L30.5735 88.3889L31.3856 88.5436L31.6834 87.7724L59.4816 15.7929Z" fill="#30302C" stroke="#E2E1E1" stroke-width="1.98214"/>
<path d="M68.5596 84.6455C68.5442 82.7711 68.6153 81.0664 68.773 79.5313L68.6005 79.2771C67.012 79.5175 65.2809 79.7022 63.4074 79.8312C61.5334 79.9035 59.801 79.9178 58.2101 79.8742L58.1186 68.7979L80.3556 68.5291L80.5949 97.4977C77.9919 98.7122 75.0175 99.674 71.6719 100.383C68.3826 101.035 64.1818 101.382 59.0697 101.425C52.2536 101.481 46.9067 100.616 43.0292 98.8305C39.1513 96.9879 36.4002 94.0284 34.776 89.9518C33.1513 85.8184 32.3106 80.3153 32.2538 73.4423C32.2078 67.8758 32.7949 63.2981 34.015 59.7093C35.2918 56.12 37.1435 53.3497 39.57 51.3983C42.0529 49.3896 45.0805 48.0013 48.6529 47.2333C52.2248 46.4085 56.3112 45.9771 60.9121 45.9391C63.6386 45.9166 66.366 46.0077 69.0943 46.2124C71.8795 46.4166 74.6379 46.8199 77.3695 47.4222L77.4624 58.6688L77.2082 58.8414C74.8178 58.2931 72.4289 57.9151 70.0413 57.7076C67.7106 57.4997 65.3524 57.4055 62.9668 57.4252C59.5019 57.4538 56.4661 57.8481 53.8593 58.6081C51.3089 59.3109 49.3328 60.7757 47.931 63.0027C46.5293 65.2297 45.8477 68.672 45.8861 73.3297C45.9241 77.9306 46.3224 81.4493 47.081 83.8856C47.8959 86.2647 49.358 87.9 51.4671 88.7915C53.6326 89.6257 56.7034 90.0263 60.6795 89.9935C61.1907 89.9893 61.9859 89.9827 63.0651 89.9738C64.1439 89.9081 65.2226 89.8424 66.3014 89.7767C67.3802 89.711 68.1463 89.6194 68.5997 89.5021L68.5596 84.6455Z" fill="#EB0E0E"/>
<path d="M55.1239 84.7965L58.4393 69.4674L70.0575 80.005L55.1239 84.7965Z" fill="#EB0E0E"/>
<path d="M46.9281 94.5677L46.9939 80.9933L59.5527 89.579L46.9281 94.5677Z" fill="#30302C"/>
<path d="M80.9832 106.594L67.0942 99.3096L80.3494 90.9236L80.9832 106.594Z" fill="#EB0E0E"/>
<path d="M77.5843 55.6733L63.2085 48.5382L77.8028 39.6257L77.5843 55.6733Z" fill="#EB0E0E"/>
<path d="M85.2315 60.966L73.3903 82.4727L62.1601 69.3601L85.2315 60.966Z" fill="#EB0E0E"/>
<defs>
<linearGradient id="paint0_linear_74_76" x1="59" y1="3" x2="59" y2="133" gradientUnits="userSpaceOnUse">
<stop stop-color="#D37E18"/>
<stop offset="1" stop-color="#EB0E0E"/>
</linearGradient>
</defs>
</svg>
