<svg width="650" height="634" viewBox="0 0 650 634" fill="none" xmlns="http://www.w3.org/2000/svg">
<path d="M585 113.833C578.333 107.167 568.333 100.5 558.333 100.5C558.333 43.8333 515 0.5 458.333 0.5H191.667C135 0.5 91.6667 43.8333 91.6667 100.5C81.6667 100.5 71.6667 107.167 65.0001 113.833L21.6667 177.167C1.66674 207.167 -4.99993 243.833 5.00007 277.167C15.0001 310.5 31.6667 333.833 58.3334 347.167V500.5C58.3334 573.833 118.333 633.833 191.667 633.833H258.333H391.667H458.333C531.667 633.833 591.667 573.833 591.667 500.5V347.167C618.333 330.5 635 307.167 645 277.167C655 243.833 648.333 203.833 628.333 177.167L585 113.833ZM191.667 67.1667H458.333C478.333 67.1667 491.667 80.5 491.667 100.5H425H225H158.333C158.333 80.5 171.667 67.1667 191.667 67.1667ZM391.667 167.167V227.167V233.833C391.667 270.5 361.667 300.5 325 300.5C288.333 300.5 258.333 270.5 258.333 233.833V227.167V167.167H391.667ZM115 300.5C111.667 300.5 105 297.167 101.667 297.167C98.3334 297.167 95.0001 293.833 95.0001 293.833C81.6667 287.167 75.0001 277.167 71.6667 263.833C68.3334 247.167 71.6667 230.5 78.3334 217.167L111.667 170.5H125H191.667V230.5C191.667 260.5 171.667 290.5 145 297.167H141.667C138.333 297.167 138.333 297.167 135 297.167C131.667 297.167 131.667 297.167 128.333 297.167C125 297.167 121.667 297.167 118.333 297.167C118.333 300.5 118.333 300.5 115 300.5ZM358.333 567.167H291.667V500.5C291.667 480.5 305 467.167 325 467.167C345 467.167 358.333 480.5 358.333 500.5V567.167ZM525 500.5C525 537.167 495 567.167 458.333 567.167H425V500.5C425 443.833 381.667 400.5 325 400.5C268.333 400.5 225 443.833 225 500.5V567.167H191.667C155 567.167 125 537.167 125 500.5V367.167C128.333 367.167 135 367.167 138.333 367.167C141.667 367.167 145 367.167 148.333 363.833C151.667 363.833 155 363.833 158.333 360.5C161.667 360.5 165 357.167 171.667 357.167C178.333 353.833 181.667 353.833 185 350.5C201.667 343.833 215 333.833 225 320.5L228.333 323.833C231.667 327.167 235 330.5 238.333 333.833C241.667 337.167 245 337.167 248.333 340.5C251.667 343.833 258.333 347.167 261.667 350.5C265 353.833 268.333 353.833 271.667 357.167C278.333 360.5 281.667 360.5 288.333 363.833C291.667 363.833 295 367.167 298.333 367.167C305 367.167 315 367.167 325 367.167C335 367.167 345 367.167 351.667 363.833C355 363.833 358.333 360.5 361.667 360.5C368.333 357.167 375 357.167 378.333 353.833C381.667 353.833 385 350.5 388.333 347.167C391.667 343.833 398.333 340.5 401.667 337.167C405 333.833 408.333 333.833 411.667 330.5C415 327.167 418.333 323.833 421.667 320.5C421.667 320.5 425 320.5 425 317.167C435 330.5 448.333 340.5 461.667 347.167C465 350.5 471.667 350.5 475 353.833C478.333 353.833 481.667 357.167 488.333 357.167C491.667 357.167 493.5 359.5 498.333 360.5C503.5 363.833 503.5 362.333 508.333 363.833C511.667 363.833 518.333 363.833 521.667 363.833L525 500.5ZM578.333 260.5C575 273.833 565 287.167 555 290.5C551.667 290.5 548.333 293.833 545 293.833C541.667 293.833 538.333 297.167 531.667 297.167H528.333C525 297.167 521.667 297.167 518.333 297.167C515 297.167 515 297.167 511.667 297.167C508.333 297.167 508.333 297.167 505 297.167H501.667C475 287.167 455 260.5 455 230.5V167.167H521.667H538.333L571.667 213.833C581.667 227.167 585 247.167 578.333 260.5Z" fill="#860E0E"/>
</svg>
