<svg width="28" height="28" viewBox="0 0 28 28" fill="none" xmlns="http://www.w3.org/2000/svg">
<path d="M12.7009 21.0001C12.586 21.0001 12.4758 21.0457 12.3945 21.127C12.3132 21.2082 12.2676 21.3185 12.2676 21.4334V21.8667C12.2676 21.9817 12.3132 22.0919 12.3945 22.1731C12.4758 22.2544 12.586 22.3001 12.7009 22.3001C12.8158 22.3001 12.9261 22.2544 13.0073 22.1731C13.0886 22.0919 13.1342 21.9817 13.1342 21.8667V21.4334C13.1342 21.3185 13.0886 21.2082 13.0073 21.127C12.9261 21.0457 12.8158 21.0001 12.7009 21.0001Z" fill="#860E0E"/>
<path d="M15.3005 21.0001C15.1856 21.0001 15.0754 21.0457 14.9941 21.127C14.9128 21.2082 14.8672 21.3185 14.8672 21.4334V21.8667C14.8672 21.9817 14.9128 22.0919 14.9941 22.1731C15.0754 22.2544 15.1856 22.3001 15.3005 22.3001C15.4154 22.3001 15.5257 22.2544 15.6069 22.1731C15.6882 22.0919 15.7339 21.9817 15.7339 21.8667V21.4334C15.7339 21.3185 15.6882 21.2082 15.6069 21.127C15.5257 21.0457 15.4154 21.0001 15.3005 21.0001Z" fill="#860E0E"/>
<path d="M25.701 24.4667H24.8343V15.7567C25.3231 15.6556 25.7621 15.3893 26.0778 15.0026C26.3934 14.616 26.5664 14.1325 26.5677 13.6334V12.7667C26.5682 12.6856 26.5457 12.6059 26.5027 12.5371L24.336 9.0704C24.2966 9.00829 24.2422 8.95708 24.1778 8.92149C24.1135 8.8859 24.0412 8.86707 23.9677 8.86673H18.3343V8.00007H26.0074C26.3519 7.99904 26.6819 7.86174 26.9255 7.61817C27.1691 7.37459 27.3064 7.04453 27.3074 6.70007V1.3C27.3064 0.955536 27.1691 0.625473 26.9255 0.381898C26.6819 0.138323 26.3519 0.00102877 26.0074 0L1.49833 6.21875e-07C1.15387 0.0010294 0.823806 0.138324 0.580231 0.381899C0.336656 0.625474 0.199362 0.955537 0.198334 1.3V6.70007C0.199362 7.04453 0.336656 7.37459 0.580231 7.61817C0.823806 7.86174 1.15387 7.99904 1.49833 8.00007H9.66766V8.86673H4.03432C3.96077 8.86707 3.88849 8.8859 3.82412 8.92149C3.75976 8.95708 3.70538 9.00829 3.66599 9.0704L1.49932 12.5371C1.45632 12.6059 1.43378 12.6856 1.43432 12.7667V13.6334C1.4356 14.1325 1.60858 14.616 1.92421 15.0026C2.23984 15.3893 2.6789 15.6556 3.16766 15.7567V24.4667H2.30099C1.95652 24.4678 1.62646 24.6051 1.38289 24.8486C1.13931 25.0922 1.00202 25.4223 1.00099 25.7668V26.6334C1.00099 26.7483 1.04664 26.8586 1.12791 26.9398C1.20917 27.0211 1.31939 27.0667 1.43432 27.0667H26.5677C26.6826 27.0667 26.7928 27.0211 26.8741 26.9398C26.9553 26.8586 27.001 26.7483 27.001 26.6334V25.7668C27 25.4223 26.8627 25.0922 26.6191 24.8486C26.3755 24.6051 26.0454 24.4678 25.701 24.4667ZM25.701 13.6334C25.701 13.9782 25.564 14.3088 25.3202 14.5526C25.0764 14.7964 24.7458 14.9334 24.401 14.9334C24.0562 14.9334 23.7255 14.7964 23.4817 14.5526C23.2379 14.3088 23.101 13.9782 23.101 13.6334V13.2001H25.701V13.6334ZM19.201 17.5334H8.80099C8.45652 17.5344 8.12646 17.6717 7.88289 17.9153C7.63931 18.1589 7.50202 18.4889 7.50099 18.8334V24.4667H4.03432V15.7567C4.55611 15.6482 5.01921 15.3502 5.33432 14.9204C5.53372 15.193 5.7946 15.4147 6.09577 15.5675C6.39695 15.7204 6.72992 15.8 7.06765 15.8C7.40539 15.8 7.73836 15.7204 8.03953 15.5675C8.34071 15.4147 8.60159 15.193 8.80099 14.9204C9.00039 15.193 9.26127 15.4147 9.56244 15.5675C9.86362 15.7204 10.1966 15.8 10.5343 15.8C10.8721 15.8 11.205 15.7204 11.5062 15.5675C11.8074 15.4147 12.0683 15.193 12.2677 14.9204C12.4671 15.193 12.7279 15.4147 13.0291 15.5675C13.3303 15.7204 13.6633 15.8 14.001 15.8C14.3387 15.8 14.6717 15.7204 14.9729 15.5675C15.274 15.4147 15.5349 15.193 15.7343 14.9204C15.9337 15.193 16.1946 15.4147 16.4958 15.5675C16.7969 15.7204 17.1299 15.8 17.4677 15.8C17.8054 15.8 18.1384 15.7204 18.4395 15.5675C18.7407 15.4147 19.0016 15.193 19.201 14.9204C19.4004 15.193 19.6613 15.4147 19.9624 15.5675C20.2636 15.7204 20.5966 15.8 20.9343 15.8C21.2721 15.8 21.605 15.7204 21.9062 15.5675C22.2074 15.4147 22.4683 15.193 22.6677 14.9204C22.9828 15.3502 23.4459 15.6482 23.9677 15.7567V24.4667H20.501V18.8334C20.5 18.4889 20.3627 18.1589 20.1191 17.9153C19.8755 17.6717 19.5454 17.5344 19.201 17.5334ZM19.6343 18.8334V24.4667H14.4343V18.4001H19.201C19.3159 18.4001 19.4261 18.4457 19.5074 18.527C19.5887 18.6083 19.6343 18.7185 19.6343 18.8334ZM13.5677 18.4001V24.4667H8.36766V18.8334C8.36766 18.7185 8.41331 18.6083 8.49458 18.527C8.57584 18.4457 8.68606 18.4001 8.80099 18.4001H13.5677ZM5.76765 13.6334V13.2001H8.36766V13.6334C8.36766 13.9782 8.23069 14.3088 7.98689 14.5526C7.7431 14.7964 7.41244 14.9334 7.06765 14.9334C6.72287 14.9334 6.39221 14.7964 6.14842 14.5526C5.90462 14.3088 5.76765 13.9782 5.76765 13.6334ZM9.23432 13.6334V13.2001H11.8343V13.6334C11.8343 13.9782 11.6974 14.3088 11.4536 14.5526C11.2098 14.7964 10.8791 14.9334 10.5343 14.9334C10.1895 14.9334 9.85888 14.7964 9.61508 14.5526C9.37129 14.3088 9.23432 13.9782 9.23432 13.6334ZM15.301 13.2001V13.6334C15.301 13.9782 15.164 14.3088 14.9202 14.5526C14.6764 14.7964 14.3458 14.9334 14.001 14.9334C13.6562 14.9334 13.3255 14.7964 13.0817 14.5526C12.838 14.3088 12.701 13.9782 12.701 13.6334V13.2001H15.301ZM12.7573 12.3334L13.0823 9.7334H14.9197L15.2447 12.3334H12.7573ZM10.5343 8.86673V8.00007H17.4677V8.86673H10.5343ZM16.1677 13.6334V13.2001H18.7677V13.6334C18.7677 13.9782 18.6307 14.3088 18.3869 14.5526C18.1431 14.7964 17.8124 14.9334 17.4677 14.9334C17.1229 14.9334 16.7922 14.7964 16.5484 14.5526C16.3046 14.3088 16.1677 13.9782 16.1677 13.6334ZM19.6343 13.6334V13.2001H22.2343V13.6334C22.2343 13.9782 22.0974 14.3088 21.8536 14.5526C21.6098 14.7964 21.2791 14.9334 20.9343 14.9334C20.5895 14.9334 20.2589 14.7964 20.0151 14.5526C19.7713 14.3088 19.6343 13.9782 19.6343 13.6334ZM23.7293 9.7334L25.3543 12.3334H22.9363L21.6363 9.7334H23.7293ZM20.6657 9.7334L21.9657 12.3334H19.5L18.525 9.7334H20.6657ZM18.577 12.3334H16.1157L15.7907 9.7334H17.602L18.577 12.3334ZM1.49833 7.1334C1.38341 7.1334 1.27319 7.08775 1.19192 7.00648C1.11065 6.92521 1.065 6.81499 1.065 6.70007V1.3C1.065 1.18507 1.11065 1.07485 1.19192 0.993589C1.27319 0.912323 1.38341 0.866668 1.49833 0.866668L26.0074 0.866668C26.1223 0.866668 26.2325 0.912322 26.3138 0.993588C26.3951 1.07485 26.4407 1.18507 26.4407 1.3V6.70007C26.4407 6.81499 26.3951 6.92521 26.3138 7.00648C26.2325 7.08775 26.1223 7.1334 26.0074 7.1334L1.49833 7.1334ZM10.4 9.7334H12.2113L11.8863 12.3334H9.42499L10.4 9.7334ZM9.47699 9.7334L8.50199 12.3334H6.03632L7.33632 9.7334H9.47699ZM4.27266 9.7334H6.36565L5.06565 12.3334H2.64766L4.27266 9.7334ZM2.30099 13.6334V13.2001H4.90099V13.6334C4.90099 13.9782 4.76402 14.3088 4.52023 14.5526C4.27643 14.7964 3.94577 14.9334 3.60099 14.9334C3.25621 14.9334 2.92555 14.7964 2.68175 14.5526C2.43795 14.3088 2.30099 13.9782 2.30099 13.6334ZM26.1343 26.2001H1.86766V25.7668C1.86766 25.6518 1.91331 25.5416 1.99458 25.4603C2.07584 25.3791 2.18606 25.3334 2.30099 25.3334H25.701C25.8159 25.3334 25.9261 25.3791 26.0074 25.4603C26.0887 25.5416 26.1343 25.6518 26.1343 25.7668V26.2001Z" fill="#860E0E"/>
<path d="M3.77872 4.28H3.74472H3.77872L4.22922 2.4185L4.59472 1.05H5.65722L6.03972 7H4.92622L4.76472 3.753H4.72222L4.11022 6.15H3.41322L2.80122 3.753H2.75872L2.59722 7H1.48372L1.86622 1.05H2.92872L3.29422 2.4185L3.74472 4.28H3.77872ZM9.1725 7L8.994 6.0565H7.651L7.4725 7H6.3165L7.464 1.05H9.2235L10.3115 7H9.1725ZM8.3055 2.155L7.974 4.1355L7.787 5.147H8.8495L8.654 4.1355L8.3225 2.155H8.3055ZM10.7215 1.05H12.9825C13.3395 1.169 13.6427 1.39 13.892 1.713C14.147 2.03033 14.2745 2.42133 14.2745 2.886C14.2745 3.64533 13.9742 4.2035 13.3735 4.5605L14.232 7H13.042L12.3195 4.8325H11.869V7H10.7215V1.05ZM11.869 2.07V3.8805H12.6C12.6963 3.85783 12.8012 3.7615 12.9145 3.5915C13.0335 3.41583 13.093 3.21183 13.093 2.9795C13.093 2.74717 13.042 2.54317 12.94 2.3675C12.8437 2.19183 12.7473 2.09267 12.651 2.07H11.869ZM14.8035 7V1.05H15.968V3.5575H16.0105L17.073 1.05H18.2715L17.0305 3.889L18.331 7H17.039L16.0275 4.399H15.968V7H14.8035ZM18.6531 7V1.05H21.7046V2.07H19.8176V3.4895H21.5006V4.4755H19.8176V6.014H21.7386V7H18.6531ZM23.2722 2.07H21.9887V1.05H25.7117V2.07H24.4282V7H23.2722V2.07Z" fill="#860E0E"/>
</svg>
