<svg width="26" height="28" viewBox="0 0 26 28" fill="none" xmlns="http://www.w3.org/2000/svg">
<path d="M11.6999 21.0001C11.585 21.0001 11.4748 21.0457 11.3935 21.127C11.3123 21.2082 11.2666 21.3185 11.2666 21.4334V21.8667C11.2666 21.9817 11.3123 22.0919 11.3935 22.1731C11.4748 22.2544 11.585 22.3001 11.6999 22.3001C11.8149 22.3001 11.9251 22.2544 12.0063 22.1731C12.0876 22.0919 12.1333 21.9817 12.1333 21.8667V21.4334C12.1333 21.3185 12.0876 21.2082 12.0063 21.127C11.9251 21.0457 11.8149 21.0001 11.6999 21.0001Z" fill="#860E0E"/>
<path d="M14.2995 21.0001C14.1846 21.0001 14.0744 21.0457 13.9931 21.127C13.9119 21.2082 13.8662 21.3185 13.8662 21.4334V21.8667C13.8662 21.9817 13.9119 22.0919 13.9931 22.1731C14.0744 22.2544 14.1846 22.3001 14.2995 22.3001C14.4145 22.3001 14.5247 22.2544 14.606 22.1731C14.6872 22.0919 14.7329 21.9817 14.7329 21.8667V21.4334C14.7329 21.3185 14.6872 21.2082 14.606 21.127C14.5247 21.0457 14.4145 21.0001 14.2995 21.0001Z" fill="#860E0E"/>
<path d="M7.4666 4.79998C7.4666 4.37564 7.29803 3.96867 6.99797 3.66861C6.69791 3.36855 6.29095 3.19998 5.8666 3.19998C5.76112 3.19998 5.658 3.1687 5.5703 3.1101C5.48259 3.0515 5.41423 2.9682 5.37387 2.87075C5.3335 2.77329 5.32294 2.66606 5.34352 2.5626C5.3641 2.45915 5.41489 2.36412 5.48948 2.28953C5.56407 2.21494 5.6591 2.16414 5.76255 2.14357C5.86601 2.12299 5.97325 2.13355 6.0707 2.17392C6.16815 2.21428 6.25145 2.28264 6.31005 2.37035C6.36866 2.45805 6.39994 2.56117 6.39994 2.66665C6.39994 2.8081 6.45613 2.94376 6.55614 3.04377C6.65616 3.14379 6.79182 3.19998 6.93327 3.19998C7.07472 3.19998 7.21037 3.14379 7.31039 3.04377C7.41041 2.94376 7.4666 2.8081 7.4666 2.66665C7.4666 2.3502 7.37276 2.04086 7.19695 1.77774C7.02114 1.51462 6.77126 1.30954 6.4789 1.18844C6.18653 1.06734 5.86483 1.03566 5.55446 1.09739C5.24409 1.15913 4.959 1.31152 4.73523 1.53528C4.51147 1.75904 4.35908 2.04414 4.29735 2.35451C4.23561 2.66488 4.26729 2.98658 4.3884 3.27894C4.5095 3.57131 4.71457 3.82119 4.97769 3.997C5.24081 4.17281 5.55015 4.26665 5.8666 4.26665C5.97209 4.26665 6.0752 4.29793 6.16291 4.35653C6.25061 4.41514 6.31897 4.49843 6.35934 4.59589C6.3997 4.69334 6.41027 4.80058 6.38969 4.90403C6.36911 5.00749 6.31831 5.10252 6.24373 5.17711C6.16914 5.2517 6.07411 5.30249 5.97065 5.32307C5.86719 5.34365 5.75996 5.33309 5.6625 5.29272C5.56505 5.25235 5.48175 5.18399 5.42315 5.09629C5.36455 5.00858 5.33327 4.90547 5.33327 4.79998C5.33327 4.65854 5.27708 4.52288 5.17706 4.42286C5.07704 4.32284 4.94138 4.26665 4.79994 4.26665C4.65849 4.26665 4.52283 4.32284 4.42281 4.42286C4.32279 4.52288 4.2666 4.65854 4.2666 4.79998C4.2666 5.22433 4.43517 5.6313 4.73523 5.93135C5.03529 6.23141 5.44226 6.39998 5.8666 6.39998C6.29095 6.39998 6.69791 6.23141 6.99797 5.93135C7.29803 5.6313 7.4666 5.22433 7.4666 4.79998Z" fill="#860E0E"/>
<path d="M14.3998 6.39998C14.8242 6.39998 15.2311 6.23141 15.5312 5.93136C15.8312 5.6313 15.9998 5.22433 15.9998 4.79998V2.66665C15.9998 2.2423 15.8312 1.83534 15.5312 1.53528C15.2311 1.23522 14.8242 1.06665 14.3998 1.06665C13.9755 1.06665 13.5685 1.23522 13.2684 1.53528C12.9684 1.83534 12.7998 2.2423 12.7998 2.66665V4.79998C12.7998 5.22433 12.9684 5.6313 13.2684 5.93136C13.5685 6.23141 13.9755 6.39998 14.3998 6.39998ZM13.8665 2.66665C13.8665 2.5252 13.9227 2.38955 14.0227 2.28953C14.1227 2.18951 14.2584 2.13332 14.3998 2.13332C14.5413 2.13332 14.6769 2.18951 14.7769 2.28953C14.8769 2.38955 14.9331 2.5252 14.9331 2.66665V4.79998C14.9331 4.94143 14.8769 5.07709 14.7769 5.17711C14.6769 5.27713 14.5413 5.33332 14.3998 5.33332C14.2584 5.33332 14.1227 5.27713 14.0227 5.17711C13.9227 5.07709 13.8665 4.94143 13.8665 4.79998V2.66665Z" fill="#860E0E"/>
<path d="M9.06654 6.39998C9.20799 6.39998 9.34364 6.34379 9.44366 6.24377C9.54368 6.14375 9.59987 6.0081 9.59987 5.86665V4.26665H10.6665V5.86665C10.6665 6.0081 10.7227 6.14375 10.8227 6.24377C10.9228 6.34379 11.0584 6.39998 11.1999 6.39998C11.3413 6.39998 11.477 6.34379 11.577 6.24377C11.677 6.14375 11.7332 6.0081 11.7332 5.86665V1.59998C11.7332 1.45853 11.677 1.32288 11.577 1.22286C11.477 1.12284 11.3413 1.06665 11.1999 1.06665C11.0584 1.06665 10.9228 1.12284 10.8227 1.22286C10.7227 1.32288 10.6665 1.45853 10.6665 1.59998V3.19998H9.59987V1.59998C9.59987 1.45853 9.54368 1.32288 9.44366 1.22286C9.34364 1.12284 9.20799 1.06665 9.06654 1.06665C8.92509 1.06665 8.78943 1.12284 8.68941 1.22286C8.58939 1.32288 8.5332 1.45853 8.5332 1.59998V5.86665C8.5332 6.0081 8.58939 6.14375 8.68941 6.24377C8.78943 6.34379 8.92509 6.39998 9.06654 6.39998Z" fill="#860E0E"/>
<path d="M17.7775 6.39998C17.9661 6.39998 18.147 6.34379 18.2803 6.24377C18.4137 6.14375 18.4886 6.0081 18.4886 5.86665V4.26665H19.1997C19.7655 4.26665 20.3082 4.09808 20.7082 3.79802C21.1083 3.49796 21.3331 3.091 21.3331 2.66665C21.3331 2.2423 21.1083 1.83534 20.7082 1.53528C20.3082 1.23522 19.7655 1.06665 19.1997 1.06665H17.7775C17.5889 1.06665 17.408 1.12284 17.2747 1.22286C17.1413 1.32288 17.0664 1.45853 17.0664 1.59998V5.86665C17.0664 6.0081 17.1413 6.14375 17.2747 6.24377C17.408 6.34379 17.5889 6.39998 17.7775 6.39998ZM18.4886 2.13332H19.1997C19.3883 2.13332 19.5692 2.18951 19.7026 2.28953C19.8359 2.38955 19.9109 2.5252 19.9109 2.66665C19.9109 2.8081 19.8359 2.94375 19.7026 3.04377C19.5692 3.14379 19.3883 3.19998 19.1997 3.19998H18.4886V2.13332Z" fill="#860E0E"/>
<path d="M24.7 24.4668H23.8333V15.7568C24.3221 15.6556 24.7612 15.3893 25.0768 15.0027C25.3924 14.616 25.5654 14.1325 25.5667 13.6334V12.7668C25.5672 12.6856 25.5447 12.6059 25.5017 12.5371L23.335 9.07042C23.2956 9.00831 23.2412 8.9571 23.1769 8.92151C23.1125 8.88592 23.0402 8.86709 22.9667 8.86675H17.3333V8.00009H22.1C22.4445 7.99906 22.7745 7.86177 23.0181 7.61819C23.2617 7.37462 23.399 7.04455 23.4 6.70009V1.30003C23.399 0.955564 23.2617 0.625502 23.0181 0.381927C22.7745 0.138353 22.4445 0.00105827 22.1 2.95003e-05L2.98076 2.94367e-05C2.6363 0.00105821 2.30623 0.138352 2.06266 0.381927C1.81908 0.625502 1.68179 0.955564 1.68076 1.30003V6.70009C1.68179 7.04455 1.81908 7.37462 2.06266 7.61819C2.30623 7.86177 2.6363 7.99906 2.98076 8.00009H8.66667V8.86675H3.03333C2.95978 8.86709 2.8875 8.88592 2.82314 8.92151C2.75877 8.9571 2.70439 9.00831 2.665 9.07042L0.498333 12.5371C0.455333 12.6059 0.43279 12.6856 0.433333 12.7668V13.6334C0.434611 14.1325 0.60759 14.616 0.92322 15.0027C1.23885 15.3893 1.67791 15.6556 2.16667 15.7568V24.4668H1.3C0.955535 24.4678 0.625472 24.6051 0.381898 24.8486C0.138323 25.0922 0.00102877 25.4223 0 25.7668V26.6334C0 26.7483 0.0456546 26.8586 0.12692 26.9398C0.208186 27.0211 0.318406 27.0668 0.433333 27.0668H25.5667C25.6816 27.0668 25.7918 27.0211 25.8731 26.9398C25.9543 26.8586 26 26.7483 26 26.6334V25.7668C25.999 25.4223 25.8617 25.0922 25.6181 24.8486C25.3745 24.6051 25.0445 24.4678 24.7 24.4668ZM24.7 13.6334C24.7 13.9782 24.563 14.3089 24.3192 14.5527C24.0754 14.7965 23.7448 14.9334 23.4 14.9334C23.0552 14.9334 22.7246 14.7965 22.4808 14.5527C22.237 14.3089 22.1 13.9782 22.1 13.6334V13.2001H24.7V13.6334ZM18.2 17.5334H7.8C7.45554 17.5344 7.12547 17.6717 6.8819 17.9153C6.63832 18.1589 6.50103 18.489 6.5 18.8334V24.4668H3.03333V15.7568C3.55512 15.6482 4.01822 15.3503 4.33333 14.9204C4.53274 15.193 4.79362 15.4147 5.09479 15.5676C5.39596 15.7204 5.72893 15.8001 6.06667 15.8001C6.4044 15.8001 6.73737 15.7204 7.03855 15.5676C7.33972 15.4147 7.6006 15.193 7.8 14.9204C7.9994 15.193 8.26028 15.4147 8.56145 15.5676C8.86263 15.7204 9.1956 15.8001 9.53333 15.8001C9.87107 15.8001 10.204 15.7204 10.5052 15.5676C10.8064 15.4147 11.0673 15.193 11.2667 14.9204C11.4661 15.193 11.7269 15.4147 12.0281 15.5676C12.3293 15.7204 12.6623 15.8001 13 15.8001C13.3377 15.8001 13.6707 15.7204 13.9719 15.5676C14.2731 15.4147 14.5339 15.193 14.7333 14.9204C14.9327 15.193 15.1936 15.4147 15.4948 15.5676C15.796 15.7204 16.1289 15.8001 16.4667 15.8001C16.8044 15.8001 17.1374 15.7204 17.4385 15.5676C17.7397 15.4147 18.0006 15.193 18.2 14.9204C18.3994 15.193 18.6603 15.4147 18.9615 15.5676C19.2626 15.7204 19.5956 15.8001 19.9333 15.8001C20.2711 15.8001 20.604 15.7204 20.9052 15.5676C21.2064 15.4147 21.4673 15.193 21.6667 14.9204C21.9818 15.3503 22.4449 15.6482 22.9667 15.7568V24.4668H19.5V18.8334C19.499 18.489 19.3617 18.1589 19.1181 17.9153C18.8745 17.6717 18.5445 17.5344 18.2 17.5334ZM18.6333 18.8334V24.4668H13.4333V18.4001H18.2C18.3149 18.4001 18.4251 18.4457 18.5064 18.527C18.5877 18.6083 18.6333 18.7185 18.6333 18.8334ZM12.5667 18.4001V24.4668H7.36667V18.8334C7.36667 18.7185 7.41232 18.6083 7.49359 18.527C7.57485 18.4457 7.68507 18.4001 7.8 18.4001H12.5667ZM4.76667 13.6334V13.2001H7.36667V13.6334C7.36667 13.9782 7.2297 14.3089 6.98591 14.5527C6.74211 14.7965 6.41145 14.9334 6.06667 14.9334C5.72189 14.9334 5.39123 14.7965 5.14743 14.5527C4.90363 14.3089 4.76667 13.9782 4.76667 13.6334ZM8.23333 13.6334V13.2001H10.8333V13.6334C10.8333 13.9782 10.6964 14.3089 10.4526 14.5527C10.2088 14.7965 9.87812 14.9334 9.53333 14.9334C9.18855 14.9334 8.85789 14.7965 8.61409 14.5527C8.3703 14.3089 8.23333 13.9782 8.23333 13.6334ZM14.3 13.2001V13.6334C14.3 13.9782 14.163 14.3089 13.9192 14.5527C13.6754 14.7965 13.3448 14.9334 13 14.9334C12.6552 14.9334 12.3246 14.7965 12.0808 14.5527C11.837 14.3089 11.7 13.9782 11.7 13.6334V13.2001H14.3ZM11.7563 12.3334L12.0813 9.73342H13.9187L14.2437 12.3334H11.7563ZM9.53333 8.86675V8.00009H16.4667V8.86675H9.53333ZM15.1667 13.6334V13.2001H17.7667V13.6334C17.7667 13.9782 17.6297 14.3089 17.3859 14.5527C17.1421 14.7965 16.8114 14.9334 16.4667 14.9334C16.1219 14.9334 15.7912 14.7965 15.5474 14.5527C15.3036 14.3089 15.1667 13.9782 15.1667 13.6334ZM18.6333 13.6334V13.2001H21.2333V13.6334C21.2333 13.9782 21.0964 14.3089 20.8526 14.5527C20.6088 14.7965 20.2781 14.9334 19.9333 14.9334C19.5886 14.9334 19.2579 14.7965 19.0141 14.5527C18.7703 14.3089 18.6333 13.9782 18.6333 13.6334ZM22.7283 9.73342L24.3533 12.3334H21.9353L20.6353 9.73342H22.7283ZM19.6647 9.73342L20.9647 12.3334H18.499L17.524 9.73342H19.6647ZM17.576 12.3334H15.1147L14.7897 9.73342H16.601L17.576 12.3334ZM2.98076 7.13342C2.86583 7.13342 2.75561 7.08777 2.67435 7.0065C2.59308 6.92524 2.54743 6.81502 2.54743 6.70009V1.30003C2.54743 1.1851 2.59308 1.07488 2.67435 0.993617C2.75561 0.912351 2.86583 0.866696 2.98076 0.866696H22.1C22.2149 0.866696 22.3251 0.912351 22.4064 0.993617C22.4877 1.07488 22.5333 1.1851 22.5333 1.30003V6.70009C22.5333 6.81502 22.4877 6.92524 22.4064 7.0065C22.3251 7.08777 22.2149 7.13342 22.1 7.13342H2.98076ZM9.399 9.73342H11.2103L10.8853 12.3334H8.424L9.399 9.73342ZM8.476 9.73342L7.501 12.3334H5.03533L6.33533 9.73342H8.476ZM3.27167 9.73342H5.36467L4.06467 12.3334H1.64667L3.27167 9.73342ZM1.3 13.6334V13.2001H3.9V13.6334C3.9 13.9782 3.76304 14.3089 3.51924 14.5527C3.27544 14.7965 2.94478 14.9334 2.6 14.9334C2.25522 14.9334 1.92456 14.7965 1.68076 14.5527C1.43696 14.3089 1.3 13.9782 1.3 13.6334ZM25.1333 26.2001H0.866667V25.7668C0.866667 25.6518 0.912321 25.5416 0.993587 25.4603C1.07485 25.3791 1.18507 25.3334 1.3 25.3334H24.7C24.8149 25.3334 24.9251 25.3791 25.0064 25.4603C25.0877 25.5416 25.1333 25.6518 25.1333 25.7668V26.2001Z" fill="#860E0E"/>
</svg>
